<svg id="Layer" xmlns="http://www.w3.org/2000/svg" xmlns:xlink="http://www.w3.org/1999/xlink" viewBox="0 0 1521.4 1044.84"><defs><style>.cls-1,.cls-10,.cls-11,.cls-14,.cls-15,.cls-2{fill:none;}.cls-2{stroke:#170c2c;}.cls-11,.cls-14,.cls-15,.cls-2{stroke-miterlimit:10;}.cls-15,.cls-2{stroke-width:3px;}.cls-3{fill:#030207;}.cls-4{fill:#0068a8;}.cls-5{fill:#c64f4b;}.cls-6{fill:#f5b4c4;}.cls-7{fill:#170c2c;}.cls-8{fill:#fff;}.cls-9{fill:#fcce44;}.cls-10,.cls-11,.cls-15{stroke:#fff;}.cls-10{stroke-linejoin:round;}.cls-10,.cls-11,.cls-14{stroke-width:2px;}.cls-12{clip-path:url(#clip-path);}.cls-13{fill:#dd6464;}.cls-14{stroke:#dd6464;}</style><clipPath id="clip-path" transform="translate(-245.08 -169.43)"><path class="cls-1" d="M982.78,811.75c-58.07,37.67,1.49,82.64-21.53,112.85s-44.31,70.28-9.85,102.11,94.32,44.08,137,41.45c87.62-5.39,162.08-67.27,172.54-135.15s-25.23-122.54-111.39-142.36S1021.55,786.59,982.78,811.75Z"/></clipPath></defs><title>1</title><path class="cls-2" d="M948.94,286.92s39.59,25.63,88.31,8.93c43.35-14.87,48-18.47,48-18.47l-15.69,48.93s-57.84,41.23-120.61,9.23" transform="translate(-245.08 -169.43)"/><path class="cls-3" d="M865.09,524.77l115.69,94.77,2,185.92,145.39-51.69s-19.85-16.69-62-4.92c0,0,28-154.61,13.21-184.15S913.25,377.08,844.32,405.38c-72.74,29.88-66.46,248.11-66.46,248.11L642.09,761.92l17.85,81.85,57.84,58s-3.69-41-18.46-69.79c0,0,151.39-65.78,173.54-126.08S919.4,474.31,919.4,474.31" transform="translate(-245.08 -169.43)"/><path class="cls-4" d="M828.42,317.18l44,63.77a26.31,26.31,0,0,0,45.9-4.74l26.85-63.77a26.31,26.31,0,0,0-24.25-36.52H850.07C828.86,275.92,816.37,299.73,828.42,317.18Z" transform="translate(-245.08 -169.43)"/><polygon class="cls-5" points="706.61 202.19 752.16 155.31 813.23 141.96 829.16 72.03 902.61 228.19 885.62 296.03 820.95 304.11 769.23 347.8 706.61 202.19"/><polygon class="cls-3" points="885.62 296.03 820.95 304.11 752.16 155.31 813.23 141.96 885.62 296.03"/><rect class="cls-6" x="577.62" y="943.75" width="173.21" height="242.91" transform="translate(265.19 -350.07) rotate(24.9)"/><rect class="cls-4" x="1495.69" y="692.97" width="105.88" height="265.61" transform="translate(312.21 -791.89) rotate(27.54)"/><path class="cls-7" d="M1125.17,1071.46v138.31h-73.54V1071.46h73.54m3-3h-79.54v144.31h79.54V1068.46Z" transform="translate(-245.08 -169.43)"/><rect class="cls-8" x="1109.67" y="465.77" width="357.62" height="46.85"/><path class="cls-7" d="M1710.86,636.69v43.85H1356.25V636.69h354.61m3-3H1353.25v49.85h360.61V633.69Z" transform="translate(-245.08 -169.43)"/><path class="cls-9" d="M982.78,811.75c-58.07,37.67,1.49,82.64-21.53,112.85s-44.31,70.28-9.85,102.11,94.32,44.08,137,41.45c87.62-5.39,162.08-67.27,172.54-135.15s-25.23-122.54-111.39-142.36S1021.55,786.59,982.78,811.75Z" transform="translate(-245.08 -169.43)"/><circle class="cls-9" cx="127.37" cy="697.51" r="127.37"/><path class="cls-8" d="M1532.64,352.2a32.21,32.21,0,1,1,32.2-32.21A32.25,32.25,0,0,1,1532.64,352.2Z" transform="translate(-245.08 -169.43)"/><path class="cls-7" d="M1532.64,289.29a30.71,30.71,0,1,1-30.71,30.7,30.73,30.73,0,0,1,30.71-30.7m0-3a33.71,33.71,0,1,0,33.7,33.7,33.7,33.7,0,0,0-33.7-33.7Z" transform="translate(-245.08 -169.43)"/><path class="cls-8" d="M372.45,738.06a62.13,62.13,0,0,1-62-60.56H434.49A62.13,62.13,0,0,1,372.45,738.06Z" transform="translate(-245.08 -169.43)"/><path class="cls-7" d="M432.94,679a60.56,60.56,0,0,1-121,0h121m3.07-3H308.89A63.56,63.56,0,0,0,436,676Z" transform="translate(-245.08 -169.43)"/><path class="cls-6" d="M1672.63,493.69A139.57,139.57,0,1,1,1662.35,441,140,140,0,0,1,1672.63,493.69Z" transform="translate(-245.08 -169.43)"/><polygon class="cls-4" points="229.22 1043.34 25.53 1043.34 127.38 824.88 229.22 1043.34"/><path class="cls-9" d="M860.17,281.54l22.46-51.69s-15.54-18.93-5.69-31.7,21.69,0,21.69,0,15.54-16.61,37.39-8.92,22.83,37.1,13.94,53.28c-13.12,23.9-30.41,30.26-52.87,13.8l-13.38,28.61" transform="translate(-245.08 -169.43)"/><path class="cls-3" d="M889.14,192.7s3.34-25.16,35.8-23.16,34.46,14.27,47.69,11.52S987.4,217.69,952,213.69s-33.7-5.84-33.7-5.84S914,223.23,905.4,220s-7.54-20-7.54-20" transform="translate(-245.08 -169.43)"/><path class="cls-2" d="M1089.25,277.38s-3.39,52,1.53,53.24,14.77-35.7,14.77-35.7-8.61,43.7-3.69,44.93,12.92-31.23,12.92-31.23-5.23,35.23,0,35.53,10.31-37.15,2-47.61a127.52,127.52,0,0,0-18.46-18.46" transform="translate(-245.08 -169.43)"/><path class="cls-2" d="M819.64,317.85s12.08,67.53,37,89.69S957.72,444.62,971.56,440s28-16.62,26.77-20-30.61,7.31-30.61,7.31,35.49-17.17,33.38-22.93c-2.72-7.41-37.38,9.77-37.38,9.77s29.54-17.32,27.92-22C989.56,386.15,960,398,960,398l-61.23-22.62-10-33.6" transform="translate(-245.08 -169.43)"/><rect class="cls-8" x="805.05" y="900.53" width="76.54" height="141.31"/><path class="cls-7" d="M1125.17,1071.46v138.31h-73.54V1071.46h73.54m3-3h-79.54v144.31h79.54V1068.46Z" transform="translate(-245.08 -169.43)"/><line class="cls-2" x1="696.18" y1="67.64" x2="695.39" y2="81.42"/><circle class="cls-7" cx="688.38" cy="61.81" r="3.75"/><circle class="cls-7" cx="703.86" cy="66.64" r="3.75"/><path class="cls-8" d="M1662.35,441c-32,12.18-60,13.29-65.31,1.67-5-10.8,11-29.24,37.45-45A139.86,139.86,0,0,1,1662.35,441Z" transform="translate(-245.08 -169.43)"/><ellipse class="cls-8" cx="1461.84" cy="440.84" rx="14.02" ry="16.11" transform="translate(-165.74 919.49) rotate(-41.9)"/><ellipse class="cls-8" cx="331.66" cy="940.24" rx="19.15" ry="16.11" transform="translate(-788.17 292.43) rotate(-41.9)"/><path class="cls-10" d="M1569.61,358.63c-18,19.52-73.59,83.64-54.3,110.21,16,22.06,70.66,30.09,70.66,30.09s-67.09,29.7-44.43,70c11,19.58,53.72,24.53,88.65,25.15" transform="translate(-245.08 -169.43)"/><path class="cls-10" d="M250.28,904.08c38-1,76.67-4.89,79.21-16.32,3.57-16-41.24-45-41.24-45s88.53,20.69,101.3-5.38c8.78-17.94-67.51-55.08-97.78-69" transform="translate(-245.08 -169.43)"/><path class="cls-11" d="M1432.92,592c30.48-12.77,68-32.76,64.27-52.64-4.76-25.34-66.58-41.35-104.55-48.86" transform="translate(-245.08 -169.43)"/><path class="cls-11" d="M489.29,917.73c-25.4-12.29-93.82-42.57-109.2-20.08-12.21,17.87,8.67,59.54,28.43,91.47" transform="translate(-245.08 -169.43)"/><path class="cls-6" d="M1742.78,1176.61a209.25,209.25,0,0,1-3.13,36.16H1624.5a97.85,97.85,0,1,0-181.89,0H1328.68a209.25,209.25,0,0,1-3.13-36.16c0-115.21,93.4-208.61,208.62-208.61S1742.78,1061.4,1742.78,1176.61Z" transform="translate(-245.08 -169.43)"/><path class="cls-10" d="M1672.63,487.93c-15.8,7.54-35.56,18.9-37.38,29.3-1.43,8.13,13.82,14.82,30.59,19.64" transform="translate(-245.08 -169.43)"/><path class="cls-10" d="M453.69,769c-15.47,7.52-33.89,18.44-35.64,28.46C415,815,493,825.77,493,825.77" transform="translate(-245.08 -169.43)"/><g class="cls-12"><ellipse class="cls-13" cx="1021.1" cy="981.26" rx="16.12" ry="27.75" transform="translate(-514.16 1395.73) rotate(-68.21)"/><path class="cls-14" d="M1252.18,1009.39s-73.58-130.91-110.55-117.52-22,147.41-33.45,148.82-28.18-31.11-39.6-27.7c-18.32,5.48-33.31,64.67-33.31,64.67" transform="translate(-245.08 -169.43)"/><path class="cls-14" d="M1088.36,723s26.32,133.31,5.31,141.27c-14.71,5.56-48.08-30.41-48.08-30.41s31.09,76.51,8,91.84c-19.76,13.13-97-102.91-97-102.91" transform="translate(-245.08 -169.43)"/><path class="cls-14" d="M945.86,913.74s29.68,65.87-12.55,119.9" transform="translate(-245.08 -169.43)"/><path class="cls-14" d="M1152.43,774.77s-10.1,42.55,10.25,68.1c46.87,58.85,137.44,28.72,137.44,28.72" transform="translate(-245.08 -169.43)"/></g><line class="cls-2" x1="7.2" y1="1043.34" x2="247.55" y2="1043.34"/><line class="cls-2" x1="325.66" y1="1043.34" x2="973.09" y2="1043.34"/><line class="cls-2" x1="1065.04" y1="1043.34" x2="1521.4" y2="1043.34"/><line class="cls-15" x1="670.96" y1="336.29" x2="658.66" y2="422.85"/><path class="cls-15" d="M852.23,403s17.27,24.28,95.86,36.58" transform="translate(-245.08 -169.43)"/></svg>