<svg id="Layer" xmlns="http://www.w3.org/2000/svg" viewBox="0 0 1701.51 1116.09"><defs><style>.cls-1{fill:#0068a8;}.cls-11,.cls-14,.cls-2{fill:#fff;}.cls-13,.cls-3,.cls-4,.cls-6,.cls-7{fill:none;}.cls-13,.cls-3,.cls-4{stroke:#fff;}.cls-14,.cls-3{stroke-linejoin:round;}.cls-3,.cls-4{stroke-width:2px;}.cls-11,.cls-13,.cls-4,.cls-6{stroke-miterlimit:10;}.cls-5{fill:#f490a4;}.cls-11,.cls-14,.cls-6,.cls-7{stroke:#170c2c;}.cls-11,.cls-13,.cls-14,.cls-6,.cls-7{stroke-width:3px;}.cls-7{stroke-linejoin:bevel;}.cls-8{fill:#c64f4b;}.cls-9{fill:#030207;}.cls-10{fill:#fcce44;}.cls-12{fill:#170c2c;}</style></defs><title>11</title><rect class="cls-1" x="806.57" y="227.13" width="221.95" height="171.08"/><ellipse class="cls-2" cx="1034.24" cy="488.49" rx="17.49" ry="13.94" transform="translate(-261.93 334.21) rotate(-24.47)"/><path class="cls-3" d="M959.05,458.31c35.4-.92,70.77-4.21,73.14-13.55,3.38-13.33-39.11-37.55-39.11-37.55s84,17.24,96.07-4.49c5.11-9.18-20.18-24.39-47.11-37.44" transform="translate(-152.48 -138.15)"/><path class="cls-4" d="M1181,468.58c-25.93-10.84-86.76-33.66-100.82-15.59-12.65,16.27,12.13,56.19,32.08,83.37" transform="translate(-152.48 -138.15)"/><path class="cls-3" d="M1118.23,365.28a10.54,10.54,0,0,0-2,4.2c-2.92,14.62,64.82,23.61,64.82,23.61" transform="translate(-152.48 -138.15)"/><path class="cls-5" d="M546.16,497l-51.82-86.9C476.94,380.93,498,343.9,532,343.9H635.59c34,0,55,37,37.61,66.22L621.38,497C604.4,525.51,563.14,525.51,546.16,497Z" transform="translate(-152.48 -138.15)"/><path class="cls-3" d="M678.2,398c-21.52-8.36-76-27.42-86.39-10.49-8.68,14.14,28.77,42.16,58.08,61.2" transform="translate(-152.48 -138.15)"/><path class="cls-3" d="M662.56,353.13c-3.52.84-5.89,2.16-6.79,4.05-4.09,8.66,12.65,26.78,23.19,37" transform="translate(-152.48 -138.15)"/><rect class="cls-6" x="726.98" y="179.13" width="221.95" height="171.08"/><line class="cls-7" x1="726.98" y1="350.21" x2="806.57" y2="398.21"/><line class="cls-7" x1="948.93" y1="350.21" x2="1028.52" y2="398.21"/><line class="cls-7" x1="948.93" y1="179.13" x2="1028.52" y2="227.13"/><path class="cls-8" d="M1055.49,344l8.18-80.07s32.58-12.69,29.25-35.48-27-15.17-27-15.17-7.72-31.55-40.3-37.25-50.93,11.31-57.69,36.79c-11.74,44.24,10.93,60.93,59.31,66l-3.42,52.92" transform="translate(-152.48 -138.15)"/><path class="cls-9" d="M1081.55,213.13s13.43-33.66-28.38-53.87-52.89-6.33-67.44-19-44,35.28,2.85,55.05,46,16.28,46,16.28-5.4,22.17,7.59,24.17,23.37-19.63,23.37-19.63" transform="translate(-152.48 -138.15)"/><line class="cls-6" x1="833.11" y1="98.07" x2="824.44" y2="115.78"/><circle class="cls-9" cx="848.06" cy="97" r="5.36"/><circle class="cls-9" cx="821.5" cy="96.2" r="5.36"/><path class="cls-9" d="M1050,563.39h0c46.16,0,86.21,28.84,96.54,69.54L1280,1158.56s58-8,78.19,11.24l-154.94,82.94L1056,705.12l-66.79,239-3.45,308.58H809s28.14-37.51,77.11-47.69c0,0-14.76-206.84,2.74-312,9.82-59,46.81-181.32,64.11-258C962.35,593.36,1002.92,563.39,1050,563.39Z" transform="translate(-152.48 -138.15)"/><path class="cls-10" d="M1471.57,332.27a98.87,98.87,0,1,0,98.87,98.87A98.88,98.88,0,0,0,1471.57,332.27Zm0,140.31A41.44,41.44,0,1,1,1513,431.14,41.44,41.44,0,0,1,1471.57,472.58Z" transform="translate(-152.48 -138.15)"/><path class="cls-11" d="M1851.92,366.32A129.65,129.65,0,0,0,1722.28,496H1854" transform="translate(-152.48 -138.15)"/><polyline class="cls-11" points="1.29 199.37 112.93 386.62 1.29 386.62"/><path class="cls-7" d="M1141.21,311.85c32.41.61,129,104.92,129,104.92s-18-99.28-31.79-117.74,31.18-70.72,35.79-69.18-15.08,28-4.92,32.3c2.61,1.11,64.77-42.61,70.46-37.53,3.25,2.89-47.08,41.38-45.23,42.92s59.38-46.31,64.61-40.16-55.07,48.16-53.53,50.93,48.3-28.16,52-24.46-62.47,53.69-62.47,53.69" transform="translate(-152.48 -138.15)"/><path class="cls-7" d="M1312.69,297.38s36.88,170.88,10.16,188.93c-46.46,31.38-193.54-83.49-193.54-83.49" transform="translate(-152.48 -138.15)"/><path class="cls-7" d="M870.74,333.28l-71.12,17.5s49-101.94,54.57-115.86c5.25-13.19-15.72-52.87-23.33-52.77s4.29,28.85-4.53,30.11c-11.18,1.59-52.1-39.64-57.32-34.16-5.07,5.33,27.32,31.2,25.69,33.43s-55.24-40.15-61.07-33.64c-5.23,5.84,54.88,47.58,52.53,50.74s-49.23-28.89-53.45-24.08c-4.79,5.45,50.63,48.37,50.63,48.37S677.48,416.11,707.11,433.11,878,407.74,878,407.74" transform="translate(-152.48 -138.15)"/><polygon class="cls-2" points="651.39 513.39 695.63 469.14 695.63 557.63 651.39 513.39"/><path class="cls-12" d="M846.62,610.91v81.25L806,651.54l40.63-40.63m3-7.24-47.87,47.87,47.87,47.86V603.67Z" transform="translate(-152.48 -138.15)"/><polygon class="cls-2" points="1093.54 469.14 1137.78 513.39 1093.54 557.63 1093.54 469.14"/><path class="cls-12" d="M1247.52,610.91l40.62,40.63-40.62,40.62V610.91m-3-7.24V699.4l47.87-47.86-47.87-47.87Z" transform="translate(-152.48 -138.15)"/><line class="cls-7" x1="633.54" y1="1114.59" x2="1231.86" y2="1114.59"/><path class="cls-8" d="M726.85,1075.23H588.39l32-220.3-32-107.7-32,107.7,32,220.3H449.92s12.35-35.69,38.18-41.23c0,0-35.71-123.07-33.87-172.31S509,635.23,509,635.23H667.77s52.92,177.23,54.77,226.46S688.68,1034,688.68,1034C714.5,1039.54,726.85,1075.23,726.85,1075.23Z" transform="translate(-152.48 -138.15)"/><path class="cls-5" d="M1408.39,1075.23h164.3s-18.46-26.46-30.77-28.31l14.5-322.71a84.57,84.57,0,0,0-84.49-88.36h0a84.56,84.56,0,0,0-83.5,98L1437.92,1042S1413.92,1056.15,1408.39,1075.23Z" transform="translate(-152.48 -138.15)"/><line class="cls-13" x1="1340.83" y1="937.08" x2="1331.6" y2="580.77"/><path class="cls-14" d="M172.66,653.85h0a67.3,67.3,0,0,1,61.06,61.61l27.43,340.08c11.08-2.46,40.62-2.46,40.62-2.46l-70.15,22.15-54.16-312" transform="translate(-152.48 -138.15)"/><path class="cls-14" d="M1834.08,774.92s5.15,96.62,5.77,136,10.84,164.31,10.84,164.31h-70.15s16.61-11.08,35.08-11.69l-53.54-395.69,88.61-10.66" transform="translate(-152.48 -138.15)"/><path class="cls-3" d="M1502,459.3c-1.7,27.05-1.14,52.54-5.54,53.09-9,1.1-22-24.29-30.91-21.62s-16.76,21.48-21.45,35.36" transform="translate(-152.48 -138.15)"/><path class="cls-3" d="M1570.88,430.8c-16.69-21.27-35.4-39.26-48.35-34.57-6.09,2.2-10.37,8.63-13.41,17.41" transform="translate(-152.48 -138.15)"/><path class="cls-3" d="M539.41,485.72c21.14.09,39.14-3.14,43.32-13.57,11.38-28.37-74.4-89.42-69.26-96.84s32.76-.23,36.71-8.65c2.37-5.06.12-13.76-3.63-22.66" transform="translate(-152.48 -138.15)"/><path class="cls-3" d="M1434.2,413.21c-12.23-11.4-27-30.28-38.31-45.69" transform="translate(-152.48 -138.15)"/><path class="cls-3" d="M1490.79,334.15c1.49,20.46.76,38.07-5.7,40.52-11.48,4.34-37.52-23.74-37.52-23.74s8.54,21,11.73,40.63" transform="translate(-152.48 -138.15)"/><path class="cls-3" d="M1376,405.87c9.4,19.19,22.42,53.06,20.15,90.1" transform="translate(-152.48 -138.15)"/></svg>