<svg id="Layer" xmlns="http://www.w3.org/2000/svg" viewBox="0 0 1301.04 1181.72"><defs><style>.cls-1{fill:#0083c8;}.cls-10,.cls-11,.cls-2,.cls-3,.cls-5,.cls-9{fill:none;}.cls-11,.cls-2,.cls-3{stroke:#fff;}.cls-10,.cls-11,.cls-12,.cls-2,.cls-9{stroke-miterlimit:10;}.cls-2,.cls-3,.cls-9{stroke-width:2px;}.cls-3{stroke-linejoin:round;}.cls-4{fill:#fcce44;}.cls-10,.cls-12,.cls-5,.cls-9{stroke:#170c2c;}.cls-5{stroke-linejoin:bevel;}.cls-10,.cls-11,.cls-12,.cls-5{stroke-width:3px;}.cls-12,.cls-6{fill:#fff;}.cls-7{fill:#170c2c;}.cls-8{fill:#c64f4b;}</style></defs><title>13</title><circle class="cls-1" cx="635.23" cy="1074.9" r="105.34"/><path class="cls-2" d="M897.61,1205c29.17,2.21,80.21,3.07,85.57-17.18,7.52-28.42-56.31-76.34-52.36-83.94s24.1-4.5,26.86-13c2-6-3.73-16.7-10.66-26.68" transform="translate(-357.29 -84.39)"/><path class="cls-3" d="M1078.52,1220.15c-28.3-25.21-65.12-60.87-59.4-71.1,6.39-11.42,50.68-2.89,50.68-2.89s-67.6-38.42-61.61-61c2.75-10.37,34.2-4.15,62.8,3.86" transform="translate(-357.29 -84.39)"/><path class="cls-3" d="M941.57,1251.5c23-12.36,66.35-28.17,116.16-9.47" transform="translate(-357.29 -84.39)"/><path class="cls-4" d="M1272.7,195.83l81.41,137.6c15.4,26-4.16,58.75-34.37,57.51L1146,383.83c-30.21-1.23-47-35.45-29.56-60.12l92.38-130.5A38.12,38.12,0,0,1,1272.7,195.83Z" transform="translate(-357.29 -84.39)"/><path class="cls-5" d="M1202.15,430.12s12.41-41.63,20.63-41.59c6.37,0-7.42,56.08-3.88,57.48,5.68,2.24,13.35-16.81,13.35-16.81s-7.51,16.32-4.38,21.83c1.93,3.4,16.64-15.83,16.64-15.83s-67,161.92-98.88,167.07c-18.41,3-70.68-32.37-70.68-32.37" transform="translate(-357.29 -84.39)"/><path class="cls-5" d="M1063.42,503.62c20.09-1.8,68.26,30.76,68.26,30.76s42.51-78.91,51.44-93.42" transform="translate(-357.29 -84.39)"/><circle class="cls-4" cx="1055.98" cy="638.56" r="47.98"/><path class="cls-6" d="M748.23,1263.13a46.49,46.49,0,0,1,.18-93h.19a46.49,46.49,0,0,1-.18,93Z" transform="translate(-357.29 -84.39)"/><path class="cls-7" d="M748.41,1171.66h.18a45,45,0,0,1-.17,90h-.19a45,45,0,0,1,.18-90m0-3a48,48,0,0,0-.19,96h.2a48,48,0,0,0,.18-96Z" transform="translate(-357.29 -84.39)"/><path class="cls-6" d="M1613.85,1261.22a17.67,17.67,0,1,1,.07,0Z" transform="translate(-357.29 -84.39)"/><path class="cls-7" d="M1613.92,1227.46h.06a16.13,16.13,0,0,1-.06,32.26h-.07a16.13,16.13,0,0,1,.07-32.26m0-3a19.13,19.13,0,0,0-.08,38.26h.08a19.13,19.13,0,0,0,.07-38.26Z" transform="translate(-357.29 -84.39)"/><path class="cls-6" d="M1311.79,1261.22a31.33,31.33,0,0,1,.12-62.66h.13a31.33,31.33,0,0,1-.12,62.66Z" transform="translate(-357.29 -84.39)"/><path class="cls-7" d="M1311.91,1200.06h.12a29.83,29.83,0,0,1-.11,59.66h-.12a29.83,29.83,0,0,1,.11-59.66m0-3a32.83,32.83,0,0,0-.12,65.66h.13a32.83,32.83,0,0,0,.13-65.66Z" transform="translate(-357.29 -84.39)"/><circle class="cls-4" cx="134.51" cy="1112.67" r="67.57"/><circle class="cls-8" cx="1103.96" cy="1097.33" r="81"/><circle class="cls-1" cx="885.32" cy="46.34" r="46.34"/><circle class="cls-4" cx="290.06" cy="108.53" r="43.25"/><path class="cls-2" d="M1289,222.89c-10.55,8.12-19.64,17.44-20.21,25.77-1.37,20.36,41.42,29.85,41.42,29.85s-37.63,5.32-45.61,41.85c-6.13,28,8.79,55.06,18.62,69.09" transform="translate(-357.29 -84.39)"/><path class="cls-2" d="M1193.81,214.35c19,26.44,45.75,72.5,27.2,101.6-19.42,30.47-72.11,20.3-105.94,9.75" transform="translate(-357.29 -84.39)"/><polygon class="cls-1" points="322.66 327.98 249.28 190.9 417.84 205.03 322.66 327.98"/><path class="cls-8" d="M833.84,381.33a154.41,154.41,0,0,1-302.75,61Z" transform="translate(-357.29 -84.39)"/><path class="cls-8" d="M914.26,609.18a90.25,90.25,0,1,1,176.94-35.63Z" transform="translate(-357.29 -84.39)"/><path d="M985.93,434.49s32.56,3.18,45.52,21.6-1.64,47.29-1.64,47.29l-73.22,7.25Z" transform="translate(-357.29 -84.39)"/><path class="cls-4" d="M981.13,528.93l-30.55-47.8s-20.26,1.12-24-11.72,10.63-14.51,10.63-14.51-3.49-18.53,12.36-29.37,36,2.91,42.46,16.78c9.54,20.49,6.74,34.71-15.28,41.67l18.1,25.51" transform="translate(-357.29 -84.39)"/><line class="cls-9" x1="624.45" y1="357.85" x2="632.79" y2="364.71"/><path d="M972.72,515.77C987.37,500.06,943.38,448,943.38,448c23.78,0,40.92-16.29,40.92-16.29s-21.29-24.78-49.39-3.78S911.49,472,911.49,472s-27.57,26.61-12.79,52.83S951.36,552,951.36,552,961.08,528.25,972.72,515.77Z" transform="translate(-357.29 -84.39)"/><ellipse class="cls-7" cx="985.91" cy="439.16" rx="2.58" ry="3.93" transform="translate(-444.12 235.98) rotate(-17.69)"/><ellipse class="cls-7" cx="976.94" cy="444.75" rx="2.58" ry="3.93" transform="translate(-446.24 233.52) rotate(-17.69)"/><rect class="cls-7" x="1391.39" y="625.58" width="40.93" height="40.93" transform="translate(-380.75 1153.75) rotate(-47.01)"/><line class="cls-10" y1="1180.22" x2="1301.04" y2="1180.22"/><path class="cls-7" d="M942.59,1037.2l149.52,37.08s-17.35-24.52-41.27-32.89c0,0,74.76-137,70.57-171.05s-50.84-121.41-50.84-121.41L1189,778.83l139.35,100.48,84.93-108.25s-28.71,5.38-34.69,12.56c0,0-91.5-79-123.8-94.5s-188.22-70.17-246.4-59.51c-57.12,10.47-80.74,59.51-65.79,98.39s57.79,121.41,57.79,121.41Z" transform="translate(-357.29 -84.39)"/><line class="cls-11" x1="690.63" y1="621.68" x2="732.22" y2="690.65"/><path class="cls-6" d="M869.51,296c-.56,0-1.13,0-1.69-.08L510.54,265.41a19.65,19.65,0,0,1,1.65-39.23c.56,0,1.14,0,1.7.07l357.27,30.51A19.66,19.66,0,0,1,869.51,296Z" transform="translate(-357.29 -84.39)"/><path class="cls-7" d="M512.19,224.68v3h0c.52,0,1,0,1.57.06L871,258.26a18.14,18.14,0,0,1,16.54,19.63,18.25,18.25,0,0,1-18.06,16.61c-.52,0-1,0-1.57-.07L510.67,263.92a18.15,18.15,0,0,1,1.52-36.24v-3m0,0a21.15,21.15,0,0,0-1.77,42.23l357.27,30.51c.61.05,1.22.08,1.82.08a21.15,21.15,0,0,0,1.78-42.23L514,224.75c-.62-.05-1.22-.07-1.83-.07Z" transform="translate(-357.29 -84.39)"/><polyline class="cls-10" points="386.14 515.43 480.68 519.66 545.16 466.65"/><path class="cls-10" d="M697.16,630.79s87.53,27.43,157.12,26.51C876.64,657,926,615.38,926,615.38" transform="translate(-357.29 -84.39)"/><path class="cls-5" d="M1223.08,414.91s22.23,7.81,21.43,21.12" transform="translate(-357.29 -84.39)"/><path class="cls-12" d="M1183.12,441s12-23.54,23.32-21.55a77.4,77.4,0,0,1,20.83,7.1s-3,10.26-19.14,5.88" transform="translate(-357.29 -84.39)"/><path class="cls-10" d="M699.36,631.63c-2.37-1.16-21.22-9.79-5.81-37.46,0,0,1.3-28.63,3.61-28.63,6.53,0,9.14,32.24,9.14,32.24" transform="translate(-357.29 -84.39)"/><path class="cls-10" d="M695.65,618.59l5.17-2.79s6.09,9.23,8.4,8.42c5-1.75-2.8-20.18-2.8-20.18s5.86,13.84,9.1,11.9c3.87-2.33-1.32-16.15-1.32-16.15" transform="translate(-357.29 -84.39)"/><path class="cls-12" d="M744.48,599.86c-.86,0-21.48-14.94-30.48-13.35s-13.57,17.9-13.57,17.9,14,2.07,19.51-7.84" transform="translate(-357.29 -84.39)"/></svg>