<svg id="Layer" xmlns="http://www.w3.org/2000/svg" viewBox="0 0 1604.92 976.37"><defs><style>.cls-1{fill:#0068a8;}.cls-10,.cls-11,.cls-2,.cls-3,.cls-5{fill:none;}.cls-11,.cls-2,.cls-5{stroke:#fff;}.cls-2,.cls-3,.cls-5{stroke-miterlimit:10;}.cls-11,.cls-2{stroke-width:2px;}.cls-10,.cls-3{stroke:#170c2c;}.cls-10,.cls-3,.cls-5{stroke-width:3px;}.cls-4{fill:#030207;}.cls-6{fill:#fcce44;}.cls-7{fill:#c64f4b;}.cls-8{fill:#f7c9d6;}.cls-9{fill:#170c2c;}.cls-10,.cls-11{stroke-linejoin:bevel;}.cls-12{fill:#fff;}</style></defs><title>15</title><path class="cls-1" d="M1371.42,644.81c23.14,176.19-100.94,337.76-277.12,360.9q-9.63,1.26-19.2,1.94L1030,663.91l337.14-44.27Q1369.74,632,1371.42,644.81Z" transform="translate(-195.92 -253.74)"/><path class="cls-2" d="M1233.11,954.43c8.42-26.44,13.89-56.09,2.34-69.48-23.24-26.93-115.88,60.31-115.88,60.31s28.61-36.27,27-56.17c-1.22-15.11-58,3.52-85.29,13.37" transform="translate(-195.92 -253.74)"/><path class="cls-2" d="M1046.94,786.73s126.28,59.43,147,29.36-62.84-123.44-54.92-130.7,38.11,8.36,44.92-.38c5.76-7.39,2.76-25.59-1.36-41.15" transform="translate(-195.92 -253.74)"/><path class="cls-3" d="M1408.41,460.51c-11.19.82-52.63,71.39-52.63,71.39l-82.87,25.34" transform="translate(-195.92 -253.74)"/><path class="cls-2" d="M1373.76,670.32c-30.46,0-108.35,2.19-113,22.73-5.83,25.58,67.92,46.41,68,51.71s-86.19,11.09-86.06,33.65c.07,13.57,52.27,40.31,93.84,59.45" transform="translate(-195.92 -253.74)"/><path class="cls-4" d="M1750.56,1228.61H1573.89s24.1-28.45,41.57-31.69c0,0-92.89-148.75-109.06-212.13-10.79-42.29-6.62-83.44-6.62-83.44l-13.12,75.27,27.6,252H1330.53s33.63-23.93,49.8-27.16c0,0-24.32-188.42-20.44-235s6.06-242.94,75.56-311.9c49.34-49,126.24-49,178,26.9,47.29,69.34,31,275.51,31,275.51Z" transform="translate(-195.92 -253.74)"/><line class="cls-5" x1="1309.34" y1="509.72" x2="1300.61" y2="728.98"/><path class="cls-4" d="M238.89,1228.61H398.82s-18.83-28.45-34.93-31.69c0,0,46.23-162.32,53.77-227,5.88-50.44,7.75-141.77,7.75-141.77l18,136.47-32.76,264H580.08s-31-23.93-45.91-27.16c0,0,25.78-191.6,25.78-252.53,0-46.7-2.47-225.4-66.54-294.36-45.49-49-121.71-50.45-156.1,13C297.94,740.14,294.54,953,294.54,953Z" transform="translate(-195.92 -253.74)"/><line class="cls-5" x1="228.07" y1="509.72" x2="236.12" y2="728.98"/><line class="cls-3" x1="1604.92" y1="974.87" y2="974.87"/><path class="cls-1" d="M536.52,493.38,465.26,574.3C446.15,596,410.61,588,402.61,560.24L376,467.72a36.6,36.6,0,0,1,39.48-46.49l97.92,11.6C542.66,436.3,556,471.24,536.52,493.38Z" transform="translate(-195.92 -253.74)"/><path class="cls-6" d="M460.09,438.29l21.7-62.86s-20-20.84-9.59-36.76,25.52-2,25.52-2,16.76-21,43.16-13.91S575.12,349,571.33,370.4c-6.57,37.24-29.37,41.88-67.4,28.86l-15.84,40.86" transform="translate(-195.92 -253.74)"/><path class="cls-4" d="M486.06,331.13s1.62-29.9,40-30.51,41.84,13.64,57.16,9.2,20.72,41.74-21.27,40.27-40.17-3.8-40.17-3.8-3.66,18.49-14.09,15.47S497,338.93,497,338.93" transform="translate(-195.92 -253.74)"/><line class="cls-3" x1="363.59" y1="118.87" x2="363.93" y2="135.15"/><circle class="cls-4" cx="352.14" cy="119.7" r="4.43"/><circle class="cls-4" cx="370.84" cy="120.3" r="4.43"/><path class="cls-3" d="M547.51,511.51s112.13,14.14,138.68-4.66" transform="translate(-195.92 -253.74)"/><path class="cls-7" d="M1031.18,544.19,662.27,588c-5.85-146.5,88.52-277.24,226.05-319.79a321,321,0,0,1,42.07-10q7.67-1.28,15.47-2.21a321.51,321.51,0,0,1,50.87-2l25.11,211.49,3.61,30.44Z" transform="translate(-195.92 -253.74)"/><path class="cls-8" d="M1337.49,596.13,1067.76,608l-12.86-292C1201.13,332.65,1319.28,447.94,1337.49,596.13Z" transform="translate(-195.92 -253.74)"/><path class="cls-6" d="M902,668.75l-67.85,340C670.6,965.94,566.83,802.5,600.34,634.58q2.52-12.63,6-24.83Z" transform="translate(-195.92 -253.74)"/><path class="cls-3" d="M539.36,443.28c13.19-2.64,118.37,2.26,118.37,2.26s61.07-84.44,87.84-99.14,48.25-5.28,50.89,0-4.9,50.15-11.31,51.65-4.52-39.36-4.52-39.36-3,48.78-9.43,48.78-7.91-41.85-7.91-41.85-3.77,41.85-9,41.47-7.54-30.91-7.54-30.91" transform="translate(-195.92 -253.74)"/><path class="cls-3" d="M1438.86,545.22s-7.45,22.57-28.19,37.91c-21.15,15.64-59.91,33.74-159.55,32.28-40.09-.59-60.51-4.62-60.51-12.15s6.26-50.24,11.6-50.24,8.48,39.82,8.48,39.82,2.58-47.6,8.17-47.84,8.75,47.08,8.75,47.08,1.24-34.75,7.08-34.75,9.72,43.9,9.72,43.9" transform="translate(-195.92 -253.74)"/><path d="M1417.44,353.85s-31.06,32.29-28.16,63,43.8,47.76,43.8,47.76L1515.74,407Z" transform="translate(-195.92 -253.74)"/><path class="cls-7" d="M1622,550.11a120.27,120.27,0,1,0-240.48-5.52Z" transform="translate(-195.92 -253.74)"/><path class="cls-6" d="M1506.49,447.87l-10.75-76.93s22.09-16.88,14.52-33.55-24-5.63-24-5.63-12.85-22.4-39-19.58-34.88,35.07-29.26,55.26c8.3,29.82,23.88,42.13,53,29.77l3.87,42.65" transform="translate(-195.92 -253.74)"/><line class="cls-3" x1="1241.81" y1="122.83" x2="1239.25" y2="137.4"/><path d="M1503.53,426.69c-29.24-3.31-29.78-96.64-29.78-96.64-24.78,21.11-57.09,19.45-57.09,19.45s.11-44.74,48-47.88,63.63,25,63.63,25,52.38,3.17,60.33,43.62S1558,445.35,1558,445.35,1526.76,429.33,1503.53,426.69Z" transform="translate(-195.92 -253.74)"/><ellipse class="cls-9" cx="1428.65" cy="376.99" rx="3.53" ry="5.38" transform="translate(-230.23 330.42) rotate(-22.84)"/><ellipse class="cls-9" cx="1445.55" cy="372.97" rx="3.53" ry="5.38" transform="translate(-227.34 336.66) rotate(-22.84)"/><path class="cls-10" d="M1375.29,656.31s-43.9,25.43-42.67,31.17S1370,674.76,1370,674.76s-38.59,29.54-37.36,36.11,42.69-19.49,42.69-19.49-29.54,24.2-28.31,29.13,35-13.54,48-15.18,124.72-30.82,137.85-45.59,62.19-114.62,62.19-114.62" transform="translate(-195.92 -253.74)"/><path class="cls-10" d="M1549.93,473.2c-9-.41-53.78,119.79-53.78,119.79l-112,49.44-12.41,0" transform="translate(-195.92 -253.74)"/><path class="cls-5" d="M1404.08,704s80.12-23.13,113.61-42.57c17.67-10.26,33.89-31.73,33.89-31.73" transform="translate(-195.92 -253.74)"/><path class="cls-10" d="M607.77,642.73s41.23,33.06,40,38.81S609,668,609,668s35.42,28.82,34.18,35.38-44.62-21.17-44.62-21.17,28.32,27,27.09,31.94-38.16-16-52.43-22.75c-11.87-5.61-119.16-35.56-135.78-49.35-20.76-17.23-64.25-110.85-64.25-110.85" transform="translate(-195.92 -253.74)"/><path class="cls-10" d="M418.3,459.27c9.39-.41,60.85,115.81,60.85,115.81l111.7,53.43,10.76,0" transform="translate(-195.92 -253.74)"/><path class="cls-5" d="M504.4,669.74S460.34,653.61,439.31,638c-11.11-8.24-22.66-22.28-22.66-22.28" transform="translate(-195.92 -253.74)"/><path class="cls-11" d="M837.11,289.05c-16.2,32-30.85,69.61-20,85,20.51,29.07,137.35-69.37,137.35-69.37S926.86,339.74,941,353.85c9.28,9.27,46.41,3,67.42-1.45" transform="translate(-195.92 -253.74)"/><path class="cls-2" d="M787.77,573.1C815.33,539,850,491.29,841.31,477.54c-14.06-22.15-93.31,43-97.1,39.29S770,469.74,753.92,454c-7.87-7.72-39.68-2.36-70.14,5.13" transform="translate(-195.92 -253.74)"/><path class="cls-3" d="M552.49,365.62s-7.08-1.23-10.16,1.39" transform="translate(-195.92 -253.74)"/><path class="cls-3" d="M562.86,361.23s7.29-4.31,10.45.87" transform="translate(-195.92 -253.74)"/><path class="cls-2" d="M1017.09,425.52c-27.57-7.09-141.45-34.66-156.5-10.14-17.07,27.83,99.69,71.39,96.41,101.23-1.09,9.93-67.28-3.59-73,4.62-4.81,6.89,4.19,24,13.89,38.8" transform="translate(-195.92 -253.74)"/><path class="cls-12" d="M1025.45,495.92a60.57,60.57,0,0,1-16-7.44c-14.06-9-22.3-21.26-18.4-27.32,3.73-5.82,17.3-3.84,30.82,4.32Z" transform="translate(-195.92 -253.74)"/><ellipse class="cls-12" cx="702.29" cy="516.61" rx="20.02" ry="13.05" transform="translate(-253.36 690.57) rotate(-65.72)"/><path class="cls-12" d="M929.86,268.07c-4.23,9.38-18.81,11.95-32.56,5.74a38.4,38.4,0,0,1-9-5.61,321,321,0,0,1,42.07-10A14.2,14.2,0,0,1,929.86,268.07Z" transform="translate(-195.92 -253.74)"/><ellipse class="cls-12" cx="813.37" cy="434.8" rx="9.83" ry="20.02" transform="translate(-55.84 811.39) rotate(-71.24)"/></svg>