<?xml version="1.0" encoding="utf-8"?>
<!-- Generator: Adobe Illustrator 23.0.0, SVG Export Plug-In . SVG Version: 6.00 Build 0)  -->
<svg version="1.1" id="Layer" xmlns="http://www.w3.org/2000/svg" xmlns:xlink="http://www.w3.org/1999/xlink" x="0px" y="0px"
	 viewBox="0 0 1986 1352.92" style="enable-background:new 0 0 1986 1352.92;" xml:space="preserve">
<style type="text/css">
	.st0{fill:#D14D33;}
	.st1{fill:none;stroke:#FFFFFF;stroke-width:5;stroke-miterlimit:10;}
	.st2{fill:#FFC200;}
	.st3{fill:#0083C8;}
	.st4{fill:#FFFFFF;}
	.st5{fill:none;stroke:#000000;stroke-width:4;stroke-miterlimit:10;}
	.st6{fill:none;stroke:#000000;stroke-width:3;stroke-miterlimit:10;}
	.st7{fill:none;stroke:#FFFFFF;stroke-width:4;stroke-miterlimit:10;}
	.st8{fill:#C11E1E;}
	.st9{fill:none;stroke:#FFFFFF;stroke-width:3;stroke-miterlimit:10;}
</style>
<g id="Shapes">
	<polygon class="st0" points="187.22,895.23 172.91,934.6 114.83,1094.35 99.47,1136.59 0,1100.43 0,827.16 49.68,845.23 	"/>
	<path class="st1" d="M114.83,1094.35c-20.74-40.22-47.05-109.36-14.03-146.05c13.11-14.57,40.32-17.2,72.11-13.71"/>
	<path class="st1" d="M49.69,845.23c-1.33,58.65-8.92,186.78-49.69,199.07"/>
	<polygon class="st2" points="1986,859.04 1986,1120.92 1834.32,1146.98 1790.62,892.61 	"/>
	<path class="st2" d="M1615.56,891.1c-20.97,2.72-40.76-16.59-40.76-16.59s14.21-23.71,35.19-26.43s40.76,16.59,40.76,16.59
		S1636.53,888.39,1615.56,891.1z"/>
	<path class="st2" d="M668.15,989.5c-70.91,63.37-179.77,57.26-243.14-13.65s-57.26-179.77,13.65-243.14L668.15,989.5z"/>
	<path class="st3" d="M916.18,1148.55c1.06-2.19-58.84-282.17-58.84-282.17l275.97,86.38L916.18,1148.55z"/>
	<g>
		<g>
			<path class="st4" d="M863.15,894.23c17.88-0.66,35.12,1.92,51.75,8.61c15.03,6.04,28.88,14.54,43.53,21.4
				c28.4,13.29,61.47,19.21,89.91,2.49c0.74-0.43,0.25-1.77-0.6-1.44c-7.65,3.01-15.01,6.23-23.11,7.92
				c-8.33,1.74-16.86,2.02-25.3,1.09c-17.02-1.88-33.07-8.5-48.21-16.18c-13.34-6.77-26.41-14.17-40.55-19.22
				c-15.28-5.46-31.26-7.52-47.41-5.95C862.36,893.04,862.32,894.26,863.15,894.23L863.15,894.23z"/>
		</g>
	</g>
	<g>
		<g>
			<path class="st4" d="M880.92,978.56c17.84,2.55,34.14,9.39,50.06,17.6c14.26,7.36,28.31,15.13,43.69,19.96
				c15.87,4.99,32.73,6.78,49.03,2.8c15.3-3.74,28.86-11.9,42.26-19.88c18.73-11.15,38.08-21.72,56.13-33.95
				c0.83-0.56,0.11-1.83-0.79-1.36c-16.41,8.54-32.13,18.67-48.01,28.15c-14.02,8.37-27.98,17.68-43.57,22.88
				c-35.28,11.78-67.64-5.13-98.42-20.82c-15.92-8.11-32.26-14.88-50.19-16.64C880.38,977.25,880.21,978.46,880.92,978.56
				L880.92,978.56z"/>
		</g>
	</g>
	<g>
		<g>
			<path class="st4" d="M898.97,1064.2c13.6,4.04,26.42,9.13,39.04,15.64c11.69,6.03,23.38,13.45,36.12,17.03
				c0.84,0.24,1.41-1.02,0.61-1.44c-12.53-6.37-25.28-12.41-37.86-18.71c-11.83-5.92-24.37-11.79-37.56-13.74
				C898.52,1062.87,898.16,1063.96,898.97,1064.2L898.97,1064.2z"/>
		</g>
	</g>
	<g>
		<g>
			<path class="st4" d="M890.27,1019.13c12.85-22.71,25.36-47.29,25.24-74.04c-0.11-25.33-13.88-49.83-28.26-69.95
				c-0.59-0.82-1.8-0.12-1.36,0.79c5.36,10.96,12.48,20.99,17.83,31.97c5.69,11.67,9.41,24.13,9.51,37.19
				c0.21,26.9-12.99,49.83-24.06,73.41C888.84,1019.22,889.86,1019.85,890.27,1019.13L890.27,1019.13z"/>
		</g>
	</g>
	<g>
		<g>
			<path class="st4" d="M958.7,1110.59c-3.31-19.74-2.83-39.74,3.47-58.85c5.55-16.84,14.77-32.04,22.55-47.88
				c7.46-15.18,13.44-31.43,14.65-48.43c1.21-17.03-3.21-34.46-12.16-49.01c-0.54-0.88-1.75-0.11-1.36,0.79
				c3.58,8.24,7.34,16.26,9.37,25.07c2.27,9.89,2.49,20.09,0.99,30.11c-2.71,18.16-10.48,34.81-18.87,50.95
				c-7.77,14.95-15.7,29.97-19.72,46.46c-4.08,16.74-3.91,34.36-0.14,51.13C957.66,1111.73,958.83,1111.38,958.7,1110.59
				L958.7,1110.59z"/>
		</g>
	</g>
	<g>
		<g>
			<path class="st4" d="M1052.89,1026.09c7.86-14.25,15.91-28.72,21.97-43.85c5.62-14.04,10.36-30.35,8.14-45.61
				c-0.13-0.91-1.5-0.63-1.54,0.21c-0.76,16.28-3.27,31.27-9.45,46.45c-5.9,14.51-14.45,27.79-20.27,42.32
				C1051.47,1026.27,1052.55,1026.7,1052.89,1026.09L1052.89,1026.09z"/>
		</g>
	</g>
	<g>
		<g>
			<path class="st4" d="M1073.69,1157.92c0.81,0,0.82-1.27,0-1.27C1072.88,1156.65,1072.88,1157.92,1073.69,1157.92L1073.69,1157.92
				z"/>
		</g>
	</g>
	<path class="st5" d="M1594.09,829.38c0,0-11.31,49.72-52.42,81.3"/>
	<path class="st0" d="M1367.36,1036.48c-67.35-91.81,9.61-229.31,103.53-225.37c80.1,3.36,77.65,92.47,77.65,92.47
		s87.32,25.14,68.19,102.75C1594.71,1095.68,1438.46,1133.4,1367.36,1036.48z"/>
</g>
<g id="Man">
	<path class="st6" d="M1015.48,352.8c0,0,46.08,69.78,69.64,74.36c29.98,5.83,105.5-61.63,105.5-61.63s51.85,18.54,56.13,14.27
		c4.28-4.27-37.04-25.13-37.04-25.13s57.22,20.33,58.57,14.95c1.35-5.37-46.15-27.38-46.15-27.38s45.1,16.89,48.12,12.91
		c4.39-5.8-51.26-37.47-51.26-37.47c-42.19-11.34-119.11,44.25-119.11,44.25s-33.03-67.69-71.38-88.41"/>
	<path class="st6" d="M1182.1,332.69c7.79,13.79,21.74,15.04,21.74,15.04l-4.69-23.15"/>
	<polyline class="st3" points="697.24,580.96 602.84,553.43 572.71,738.41 643.75,603.81 707.36,622.06 	"/>
	<line class="st7" x1="623.96" y1="605.19" x2="638.61" y2="639.99"/>
	<line class="st7" x1="616.22" y1="623.05" x2="630.87" y2="657.86"/>
	<line class="st7" x1="634.58" y1="628.25" x2="646.51" y2="664.08"/>
	<path class="st2" d="M1014.92,193.13c1.15,20.75-14.73,38.49-35.47,39.64c-18.34,1.02-34.34-11.28-38.6-28.47
		c-0.55-2.26-0.91-4.59-1.05-7c-1.15-20.74,14.73-38.49,35.47-39.64c10.79-0.6,20.77,3.41,28.03,10.31
		C1010,174.35,1014.37,183.19,1014.92,193.13z"/>
	<path d="M1009.44,152.51c0.48,8.62-6.12,15.99-14.73,16.47c-7.62,0.42-14.26-4.68-16.03-11.83c-0.23-0.94-0.38-1.91-0.44-2.91
		c-0.48-8.61,6.12-15.99,14.73-16.47c4.48-0.25,8.63,1.42,11.64,4.28C1007.39,144.71,1009.21,148.38,1009.44,152.51z"/>
	<path d="M983.34,149.56c0.29,5.25-3.73,9.74-8.98,10.03c-4.64,0.26-8.69-2.85-9.77-7.21c-0.14-0.57-0.23-1.16-0.27-1.77
		c-0.29-5.25,3.73-9.74,8.98-10.03c2.73-0.15,5.26,0.86,7.09,2.61C982.09,144.81,983.2,147.04,983.34,149.56z"/>
	<path class="st5" d="M1004.45,210.97c0,0-7.79-1.71-7.49-8.87"/>
	<ellipse transform="matrix(0.9985 -0.0555 0.0555 0.9985 -9.4114 55.928)" cx="1003.01" cy="197.54" rx="4.08" ry="6.48"/>
	<ellipse transform="matrix(0.9985 -0.0555 0.0555 0.9985 -9.4985 55.1815)" cx="989.51" cy="198.73" rx="4.08" ry="6.48"/>
	<path class="st2" d="M953.45,196.55c0.42,7.54-5.35,13.98-12.88,14.4c-6.66,0.37-12.47-4.1-14.02-10.34
		c-0.2-0.82-0.33-1.67-0.38-2.54c-0.42-7.53,5.35-13.98,12.88-14.4c3.92-0.22,7.54,1.24,10.18,3.75
		C951.66,189.73,953.25,192.94,953.45,196.55z"/>
	<path d="M1001.51,167.07c0,0-12.85,9.23-37.22,6.17l-0.41,22.73l-14.87-2.43c0,0-4.53-12.86-16.91-7.51c0,0-2.49-25.74,12.38-31.66
		C970.45,144.03,994.53,154.4,1001.51,167.07z"/>
	<path class="st2" d="M952.72,408.55L952.72,408.55c31.29,2.02,60.19,17.46,79.26,42.36l230.53,301.07l-87.27,90.07l-227.49-317.9
		l-31.04,123.11c-9.72,38.56-47.74,62.92-86.83,55.65l-154.92-28.82c0,0-19.45-12.08-15.93-62.34
		c3.52-50.27,28.54-54.05,28.54-54.05l128.02,23.28l25.39-92.72C854.6,438.54,901.28,405.24,952.72,408.55z"/>
	<g>
		<g>
			<path class="st8" d="M697.08,677.87c-5.8-15.08-9.92-32.47-4.84-48.36c2.2-6.88,6.75-14.36,13.94-16.85
				c7.97-2.77,15.09,2.46,20.44,7.82c22.5,22.51,40.04,49.12,58.81,74.61c0.51,0.69,1.6,0.1,1.17-0.69
				c-9.12-16.61-20.82-31.96-32.65-46.72c-5.72-7.14-11.67-14.1-17.78-20.91c-5.33-5.93-10.88-13.02-18.49-16.12
				c-12.82-5.23-23.42,5.49-27.38,16.84c-5.86,16.78-1.44,35.24,5.38,50.96C696.03,679.24,697.39,678.68,697.08,677.87
				L697.08,677.87z"/>
		</g>
	</g>
	<g>
		<g>
			<path class="st8" d="M744.63,568.27c4.78,19.17,16.05,35.33,29.84,49.2c13.66,13.75,29.52,25.84,47.98,32.28
				c15.61,5.45,34.81,5.68,43.64-10.78c8.76-16.34,5.34-37.68-0.12-54.49c-3.55-10.95-8.5-21.42-13.95-31.53
				c-5.71-10.58-11.98-21.4-19.84-30.54c-0.78-0.91-2.3,0.27-1.66,1.28c10.31,16,20.67,31.54,28.18,49.14
				c7.18,16.82,12.5,36.34,8.48,54.64c-1.92,8.75-6.47,17.16-15.06,20.79c-8.65,3.65-18.63,2.01-27.3-0.76
				c-17.02-5.43-32.04-16.07-45.08-28.06c-15.33-14.1-28.65-31.05-34.27-51.41C745.32,567.5,744.5,567.73,744.63,568.27
				L744.63,568.27z"/>
		</g>
	</g>
	<g>
		<g>
			<path class="st8" d="M864.22,701.33c-5.35-17.27-10.34-34.91-10.72-53.12c-0.35-16.77,3.79-33.33,10.7-48.54
				c6.11-13.44,14.13-28.09,26.52-36.71c16-11.13,31.7-2.94,44.76,8.41c0.73,0.64,1.78-0.37,1.08-1.08
				c-8.64-8.72-19.68-17.01-32.65-15.58c-11.27,1.25-20.24,9.07-26.98,17.67c-16.8,21.43-27.11,50.41-25.82,77.7
				c0.84,17.74,6.21,34.87,11.6,51.66C863.02,702.71,864.52,702.3,864.22,701.33L864.22,701.33z"/>
		</g>
	</g>
	<g>
		<g>
			<path class="st8" d="M670.03,571.96c6.76,5.12,16.08,10.66,24.8,7.31c6.69-2.57,11.04-11.53,11.64-18.31
				c0.08-0.91-1.39-1.33-1.77-0.48c-2.66,6.02-4.92,14.62-12.02,16.8c-7.54,2.32-15.86-2.54-21.91-6.6
				C669.97,570.15,669.29,571.4,670.03,571.96L670.03,571.96z"/>
		</g>
	</g>
	<g>
		<g>
			<path class="st8" d="M852.43,460.81c7.28,10.24,16.61,21.3,28.27,26.64c10.11,4.63,20.45,2.56,28.98-4.26
				c9.93-7.94,16.31-19.84,21.15-31.36c5.79-13.78,10.6-28.61,13.45-43.29c0.18-0.91-1.06-1.24-1.38-0.38
				c-8.54,23.1-12.89,49.79-30.04,68.59c-8.59,9.41-20.55,14.39-32.63,8.31c-10.83-5.45-19.35-15.72-26.92-24.93
				C852.91,459.64,852.06,460.29,852.43,460.81L852.43,460.81z"/>
		</g>
	</g>
	<g>
		<g>
			<path class="st8" d="M1045.34,468.2c-8.71-3.83-17.53-7.4-27.04-8.57c-8.62-1.06-20.57-1.57-28.22,3.34
				c-17.13,11-0.98,36.74,7.03,48.13c11.77,16.74,27.38,30.77,43.38,43.38c16.53,13.03,34.28,24.5,52.75,34.57
				c20.77,11.32,42.85,21.69,65.85,27.54c0.72,0.18,1-0.86,0.31-1.11c-36.17-12.88-70.51-29.05-101.94-51.3
				c-15.39-10.89-29.91-23.04-42.95-36.67c-6.52-6.82-12.62-14.12-17.79-22.02c-5.34-8.16-11.76-18.37-11.43-28.47
				c0.48-14.9,16.63-16.09,28.17-15.76c11.06,0.31,21.65,2.89,31.81,7.13C1045.37,468.44,1045.45,468.25,1045.34,468.2
				L1045.34,468.2z"/>
		</g>
	</g>
	<g>
		<g>
			<path class="st8" d="M980.13,569.95c7.21-10.36,16-20.18,25.67-28.31c5.45-4.59,11.77-8.5,18.87-9.88
				c8.77-1.7,16.85,1.92,23.23,7.82c22.63,20.94,24.75,56.58,20.72,85.12c-2.58,18.28-7.6,35.97-10.97,54.07
				c-0.23,1.25,1.47,1.72,1.9,0.52c6.21-17.36,9.51-36.38,12.01-54.6c2.07-15.06,2.49-29.83-0.54-44.81
				c-3.2-15.89-10.08-33.15-22.8-43.83c-11.78-9.89-26.14-9.34-38.64-0.83c-12.32,8.39-23.2,21.18-30.65,34.03
				C978.49,570.03,979.63,570.67,980.13,569.95L980.13,569.95z"/>
		</g>
	</g>
	<g>
		<g>
			<path class="st8" d="M1103.32,742.3c21.5-2.86,41.94-8.28,62.34-15.58c19.18-6.87,39.56-16.07,55.5-28.92
				c0.8-0.65-0.22-1.74-1.04-1.34c-9.31,4.51-18.19,9.89-27.44,14.55c-9.65,4.86-19.56,9.08-29.57,13.15
				c-18.98,7.72-39.79,13.39-60,16.67C1102.3,740.96,1102.48,742.41,1103.32,742.3L1103.32,742.3z"/>
		</g>
	</g>
	<g>
		<g>
			<path class="st8" d="M1182.22,646.37c-10.89,0.54-21.9,1.35-32.49,4.11c-10.21,2.66-20.03,6.71-29.34,11.66
				c-8.79,4.68-16.97,10.64-24.61,17.01c-7.91,6.6-15.75,13.8-21.51,22.41c-0.56,0.83,0.65,1.68,1.34,1.04
				c14.57-13.52,28.5-26.95,45.77-37.09c18.41-10.81,39.67-15.95,60.83-17.63C1183.17,647.8,1183.19,646.32,1182.22,646.37
				L1182.22,646.37z"/>
		</g>
	</g>
	<g>
		<g>
			<path class="st8" d="M1135.42,785.79c16.74-11.46,36.38-18.83,56.77-19.54c20.94-0.73,39.07,6.2,56.9,16.49
				c0.98,0.56,2.19-0.87,1.25-1.62c-15.82-12.69-37.34-18.42-57.38-17.77c-21.26,0.69-41.27,8.61-58.37,21.02
				C1133.75,784.98,1134.54,786.39,1135.42,785.79L1135.42,785.79z"/>
		</g>
	</g>
	<ellipse transform="matrix(0.6921 -0.7218 0.7218 0.6921 -200.3308 1125.0703)" cx="1218.5" cy="797.34" rx="63.2" ry="20.6"/>
	<polyline class="st3" points="1192.16,826.63 1241.81,896.63 1333.36,756.49 1240.9,830.92 1215.81,795.95 	"/>
	<line class="st7" x1="1255.25" y1="827.23" x2="1259.98" y2="794.83"/>
	<line class="st7" x1="1269.26" y1="817.48" x2="1273.99" y2="785.07"/>
	<line class="st7" x1="1283.68" y1="806.19" x2="1288.41" y2="773.78"/>
	<line class="st9" x1="947.75" y1="524.15" x2="959.44" y2="463.09"/>
	<ellipse transform="matrix(0.5793 -0.8151 0.8151 0.5793 -125.4313 1403.3013)" cx="1296.66" cy="823.16" rx="92.24" ry="15.17"/>
	<path d="M1059.34,323.49L1059.34,323.49c-5.32,27.79-32.15,46-59.94,40.68l-97.24-18.61c-27.78-5.32-46-32.15-40.68-59.94v0
		c5.32-27.78,32.15-46,59.94-40.68l97.24,18.61C1046.45,268.87,1064.66,295.7,1059.34,323.49z"/>
	<path class="st6" d="M902.77,324.77c-0.02-0.01-85.49,24.55-85.49,24.55s-28.3,104.56-54.46,102.55c0,0-56.47-4.56-58.8-9.31
		c-2.33-4.75,36.49-8.64,36.49-8.64s-45.05,0.36-47.94-5.12c-2.89-5.47,44.93-8.31,44.93-8.31s-39.9-1.71-40.19-7.64
		c-0.29-5.94,47.63-7.82,47.63-7.82s10.19-78.27,32.12-99.11c25.47-24.2,134.08-47.34,134.08-47.34"/>
	<line class="st9" x1="866.02" y1="261.58" x2="910.64" y2="250.6"/>
	<line class="st9" x1="876.64" y1="332.51" x2="906.2" y2="324.3"/>
</g>
</svg>
