<svg id="Layer" xmlns="http://www.w3.org/2000/svg" viewBox="0 0 1453.74 1001.18"><defs><style>.cls-1{fill:#fcedf2;}.cls-2{fill:#fabb7b;}.cls-3{fill:#c64f4b;}.cls-4{fill:#030207;}.cls-5{fill:#0083c8;}.cls-6{fill:#fcce44;}.cls-7,.cls-8{fill:none;stroke-width:3px;}.cls-7{stroke:#111323;stroke-miterlimit:10;}.cls-8{stroke:#fff;stroke-linejoin:bevel;}.cls-9{fill:#fff;}.cls-10{fill:#170c2c;}</style></defs><title>3</title><path class="cls-1" d="M611,283.24C425.74,401,541.35,526.36,470.63,616.52c-148.95,189.89-125.45,409.85,68,511.09,186.61,97.69,457.71,124.06,761,1.33,291.15-117.81,386.48-311.25,378-463.84C1667.06,474.7,1531.82,335,1218,253.77,937.38,181.14,734.67,204.64,611,283.24Z" transform="translate(-259.25 -210.08)"/><path class="cls-2" d="M401.62,1014.84l-.12,0a.32.32,0,0,0,0-.07Z" transform="translate(-259.25 -210.08)"/><rect class="cls-3" x="377.61" y="238.37" width="144.75" height="299.16"/><polygon class="cls-4" points="377.62 238.37 377.62 537.53 373.08 542.78 311.86 613.83 310.56 615.33 309.23 616.88 307.79 618.55 307.79 319.39 377.62 238.37"/><circle class="cls-4" cx="502.97" cy="390.65" r="12.41"/><path class="cls-5" d="M665.81,666.39c-.48,4.55-1.11,9.15-1.94,13.76q-1.44,8.24-3.68,16.53c-.67,2.46-1.37,4.89-2.14,7.3a209.32,209.32,0,0,1-18.19,41q-2.31,4-4.73,7.86c-23.34,37.32-53,62.55-63.85,71l-1,.78c-1.9,1.47-3,2.28-3.16,2.37h0a.52.52,0,0,1-.07-.15,0,0,0,0,1,0,0V631.41a94.15,94.15,0,0,1,7.18-12.51l8,28.45,12.92-59.07a296.87,296.87,0,0,1,44.71-44.87c3.36-2.69,5.32-4.09,5.32-4.09s8.58,18.27,15,46.14L635.07,617l29.79-5.42A233.46,233.46,0,0,1,665.81,666.39Z" transform="translate(-259.25 -210.08)"/><path class="cls-6" d="M746.72,702.09l-53.33,21.62,40.48,4.69a183.52,183.52,0,0,1-30.58,40.08q-2.65,2.61-5.4,5l-37.73-15.77,13.41,34.06C623.25,823.55,567,827.07,567,827.07s6.74-81.58,61.3-135.06a176.15,176.15,0,0,1,27.32-21.8v49L688,653c40.33-17.31,76.56-19.58,76.56-19.58S762,665.2,746.72,702.09Z" transform="translate(-259.25 -210.08)"/><path class="cls-4" d="M1122.26,790.22l-166.51.93,98,219.61H871.55s.2-39.38,49.12-34.76c0,0-118.58-174.7-95.48-241.16,22.65-65.15,224.38-99.32,301.7-64.9,67,29.82,120.25,218.13,120.25,218.13L1365.29,837l59.15,115.67-21.55,58.1h-36.83a46.79,46.79,0,0,1,19.54-38.38l-20.92-16s-124.57,58.42-156.93,54.15c-72.35-9.55-194.18-352.15-194.18-352.15" transform="translate(-259.25 -210.08)"/><path class="cls-3" d="M989.1,575.59,1067,623.87c20.89,13,47.83-2.29,47.51-26.86l-1.09-81.82a31.12,31.12,0,0,0-43.57-28.1L993,520.63C970.06,530.67,967.79,562.38,989.1,575.59Z" transform="translate(-259.25 -210.08)"/><path class="cls-7" d="M1001.06,595.88s-90.84,29.35-129.54,21.76-95.4-52.33-101-68.67-23.12-37.29-13.11-43.11c3.69-2.14,24.58,25.63,24.58,25.63l-.85-18,98.24,44,87-17.94" transform="translate(-259.25 -210.08)"/><path class="cls-5" d="M1041.42,509.38l-28.73-59.55s18.38-22.38,6.73-37.48-25.65,0-25.65,0-18.38-19.65-44.21-10.55-27,43.87-16.5,63c15.53,28.26,36,35.78,62.53,16.31l17.82,37.13" transform="translate(-259.25 -210.08)"/><path class="cls-4" d="M1005,405.9s-3.94-29.76-42.33-27.39-40.76,16.88-56.4,13.63-17.47,43.32,24.38,38.59,39.84-6.92,39.84-6.92,5.1,18.2,15.28,14.38,8.92-23.66,8.92-23.66" transform="translate(-259.25 -210.08)"/><line class="cls-8" x1="685.19" y1="245.3" x2="682.01" y2="261.32"/><circle class="cls-9" cx="692.91" cy="241.12" r="4.44"/><circle class="cls-9" cx="675.42" cy="242.05" r="4.44"/><polyline class="cls-7" points="868.82 461.82 875.67 415.33 829 348.07"/><path class="cls-7" d="M1114.5,496.78s70.39,67.47,80.8,112.59c8.62,37.34-9.1,80.33-18.47,116.37a208.8,208.8,0,0,1-6.25,20.49" transform="translate(-259.25 -210.08)"/><path class="cls-8" d="M1171.12,728.24c-7.73,20-19.38,51.12-23.34,50.56-4.61-.66,1.55-39.57,1.55-39.57s-15.61,44.21-21.29,42.42c-7.43-2.34,10.37-51.92,10.37-51.92s-16.84,44.59-22,41.78c-5-2.71,6.67-44.26,6.67-44.26s-20.06,15.2-20.88,9.15c-1-7.5,24.38-35.91,24.38-35.91l4.93-26.15" transform="translate(-259.25 -210.08)"/><path class="cls-7" d="M1118,496.78" transform="translate(-259.25 -210.08)"/><line class="cls-8" x1="772.74" y1="513.68" x2="824.37" y2="627.32"/><line class="cls-7" x1="367.2" y1="497.56" x2="310.47" y2="615.53"/><path class="cls-5" d="M445.06,892.79c-18.9-9.1-17.89-42.8-7.17-48.64,8.93-4.87,9.94,18.13,9.94,18.13s9.86-16.49,18-12.59,1.37,21.89,1.37,21.89S485.75,858,487.52,868C489.65,880,464,901.87,445.06,892.79Z" transform="translate(-259.25 -210.08)"/><line class="cls-7" x1="185.81" y1="682.7" x2="129.08" y2="800.67"/><path class="cls-6" d="M889.92,870.73c-18.9-9.09-17.88-42.79-7.17-48.63,8.94-4.87,9.94,18.13,9.94,18.13s9.86-16.5,18-12.59S912,849.53,912,849.53,930.61,836,932.38,846C934.52,858,908.82,879.82,889.92,870.73Z" transform="translate(-259.25 -210.08)"/><line class="cls-7" x1="630.68" y1="660.65" x2="563.34" y2="800.67"/><path class="cls-5" d="M1606.6,892.79c-18.91-9.1-17.89-42.8-7.17-48.64,8.93-4.87,9.94,18.13,9.94,18.13s9.86-16.49,18-12.59,1.38,21.89,1.38,21.89,18.58-13.58,20.36-3.56C1651.19,880,1625.5,901.87,1606.6,892.79Z" transform="translate(-259.25 -210.08)"/><line class="cls-7" x1="1347.35" y1="682.7" x2="1290.62" y2="800.67"/><path class="cls-6" d="M1653.83,962.94c-18.91-9.09-17.89-42.8-7.17-48.64,8.93-4.86,9.94,18.13,9.94,18.13s9.86-16.49,18-12.59,1.37,21.89,1.37,21.89,18.59-13.58,20.36-3.56C1698.42,950.19,1672.73,972,1653.83,962.94Z" transform="translate(-259.25 -210.08)"/><line class="cls-7" x1="1394.58" y1="752.86" x2="1371.59" y2="800.67"/><path class="cls-3" d="M314,944.25c-18.9-9.09-17.88-42.8-7.17-48.63,8.94-4.87,9.94,18.13,9.94,18.13s9.86-16.5,18-12.6S336.08,923,336.08,923s18.59-13.57,20.36-3.55C358.58,931.5,332.88,953.34,314,944.25Z" transform="translate(-259.25 -210.08)"/><line class="cls-7" x1="54.74" y1="734.17" x2="22.76" y2="800.67"/><path class="cls-3" d="M776.31,943.18c-18.91-9.1-17.89-42.8-7.17-48.64,8.93-4.87,9.94,18.13,9.94,18.13s9.86-16.49,17.95-12.59S798.41,922,798.41,922s18.58-13.58,20.36-3.56C820.9,930.42,795.2,952.26,776.31,943.18Z" transform="translate(-259.25 -210.08)"/><line class="cls-7" x1="517.06" y1="733.09" x2="485.08" y2="799.59"/><path class="cls-3" d="M1042,944.21c-18.91-9.09-17.89-42.8-7.17-48.64,8.93-4.87,9.94,18.13,9.94,18.13s9.86-16.49,18-12.59,1.38,21.89,1.38,21.89,18.58-13.58,20.36-3.56C1086.62,931.46,1060.93,953.3,1042,944.21Z" transform="translate(-259.25 -210.08)"/><line class="cls-7" x1="782.78" y1="734.12" x2="750.8" y2="800.63"/><line class="cls-7" x1="358.05" y1="418.37" x2="308.69" y2="521.01"/><line class="cls-7" y1="800.67" x2="1453.74" y2="800.67"/><path class="cls-9" d="M619.26,742.76a20.83,20.83,0,0,1-9.09-2c-9.91-4.77-13.71-16.75-13.95-26.38-.23-9.21,2.58-17.27,6.85-19.59a3.45,3.45,0,0,1,1.63-.49c3.67,0,5.77,10.16,6.09,17.37l.22,5,2.57-4.28c2.07-3.47,8.64-12.47,14-12.47a4.48,4.48,0,0,1,2,.45c5.63,2.7,2.35,15.37.62,20l-1.75,4.68,4-2.95c2.65-1.93,10.52-7,15.07-7a2.57,2.57,0,0,1,2.93,2.44c.55,3.14-1.19,7.4-4.78,11.68C640.11,736,629.74,742.76,619.26,742.76Z" transform="translate(-259.25 -210.08)"/><path class="cls-10" d="M604.7,695.79c.47,0,2.11,1.28,3.39,7a58.19,58.19,0,0,1,1.2,9l.44,10,5.13-8.56c2.3-3.83,8.44-11.74,12.77-11.74a2.88,2.88,0,0,1,1.32.31c4.19,2,1.66,13.29-.14,18.13l-3.49,9.36,8.07-5.89c3.54-2.57,10.51-6.66,14.19-6.66,1,0,1.27.19,1.45,1.21.47,2.66-1.19,6.56-4.45,10.45-5.4,6.44-15.32,13-25.32,13a19.39,19.39,0,0,1-8.44-1.86c-9.3-4.48-12.87-15.88-13.1-25.06-.22-8.54,2.34-16.21,6.07-18.24a2,2,0,0,1,.91-.31m0-3a5,5,0,0,0-2.35.67c-10.72,5.84-11.73,39.55,7.17,48.64a22.26,22.26,0,0,0,9.74,2.16c16.87,0,34.5-16.89,32.72-26.93a4,4,0,0,0-4.4-3.68c-6,0-16,7.24-16,7.24s6.72-18-1.37-21.89a6,6,0,0,0-2.62-.6c-7.45,0-15.34,13.2-15.34,13.2s-.82-18.81-7.59-18.81Z" transform="translate(-259.25 -210.08)"/><path class="cls-9" d="M614,653.29a17.81,17.81,0,0,1-7.82-1.73c-8.55-4.11-11.82-14.46-12-22.78-.2-7.94,2.21-14.88,5.86-16.87a2.82,2.82,0,0,1,1.33-.4c3,0,4.84,8.9,5.1,14.93l.22,5,2.56-4.29c1.79-3,7.45-10.75,12.07-10.75a3.66,3.66,0,0,1,1.62.37c4.74,2.28,1.83,13.44.44,17.17l-1.75,4.69,4-3c2.29-1.67,9.1-6,13-6a2.05,2.05,0,0,1,2.36,2c.47,2.68-1,6.32-4.12,10C632,647.43,623,653.29,614,653.29Z" transform="translate(-259.25 -210.08)"/><path class="cls-10" d="M601.32,613h0c.27.06,1.62,1.36,2.65,6.21a51.25,51.25,0,0,1,.94,7.28l.44,10,5.13-8.59c2.42-4,7.51-10,10.78-10a2.07,2.07,0,0,1,1,.23c3.22,1.54,1.38,10.72-.31,15.29l-3.5,9.35,8.07-5.88c3-2.21,9-5.72,12.12-5.73a1.35,1.35,0,0,1,.66.11,1.37,1.37,0,0,1,.22.63c.39,2.2-1,5.48-3.78,8.77-4.65,5.54-13.17,11.13-21.74,11.13a16.37,16.37,0,0,1-7.17-1.58c-7.94-3.82-11-13.59-11.18-21.47-.21-8.25,2.39-14,5.07-15.51a1.39,1.39,0,0,1,.62-.22m0-3a4.31,4.31,0,0,0-2.05.58c-9.33,5.08-10.21,34.41,6.24,42.32a19.28,19.28,0,0,0,8.47,1.88c14.68,0,30-14.7,28.47-23.43a3.51,3.51,0,0,0-3.83-3.21c-5.25,0-13.88,6.31-13.88,6.31s5.84-15.67-1.2-19.05a5.15,5.15,0,0,0-2.27-.52c-6.49,0-13.35,11.48-13.35,11.48S607.2,610,601.32,610Z" transform="translate(-259.25 -210.08)"/><line class="cls-8" x1="630.68" y1="660.65" x2="615.86" y2="690.64"/><line class="cls-8" x1="773.44" y1="753.56" x2="751.81" y2="798.53"/></svg>