<?xml version="1.0" encoding="utf-8"?>
<!-- Generator: Adobe Illustrator 23.0.0, SVG Export Plug-In . SVG Version: 6.00 Build 0)  -->
<svg version="1.1" id="Layer" xmlns="http://www.w3.org/2000/svg" xmlns:xlink="http://www.w3.org/1999/xlink" x="0px" y="0px"
	 viewBox="0 0 1986 1352.92" style="enable-background:new 0 0 1986 1352.92;" xml:space="preserve">
<style type="text/css">
	.st0{fill:#D14D33;}
	.st1{fill:#C64F4B;}
	.st2{fill:#FFC200;}
	.st3{fill:none;stroke:#FFFFFF;stroke-width:4;stroke-miterlimit:10;}
	.st4{fill:none;stroke:#000000;stroke-width:4;stroke-miterlimit:10;}
	.st5{fill:#066DC1;}
	.st6{fill:none;stroke:#FFFFFF;stroke-width:3;stroke-miterlimit:10;}
	.st7{fill:none;stroke:#000000;stroke-width:4;stroke-linejoin:bevel;stroke-miterlimit:10;}
	.st8{fill:none;stroke:#000000;stroke-width:7;stroke-miterlimit:10;}
	.st9{fill:#FFFFFF;}
	.st10{fill:none;stroke:#000000;stroke-width:5;stroke-miterlimit:10;}
	.st11{fill:none;stroke:#FFFFFF;stroke-width:7;stroke-miterlimit:10;}
</style>
<g id="Woman">
	<path class="st0" d="M1259.17,558.32c-81.2,24.88-170.41,41.42-264,41.42c-93.59,0-182.8-16.54-264-41.42
		c15.54-132,127.81-234.4,264-234.4S1243.62,426.32,1259.17,558.32z"/>
	<circle cx="1230.04" cy="791.06" r="54.47"/>
	<path class="st1" d="M1248.2,786.49c8.86,55.63-29.05,107.92-84.69,116.78s-107.92-29.05-116.78-84.69"/>
	<polyline class="st2" points="943.54,1091.78 942.6,1189.24 755.19,1191.29 898.92,1141.24 904.42,1075.61 	"/>
	<line class="st3" x1="894.59" y1="1160.6" x2="862.38" y2="1140.89"/>
	<line class="st3" x1="875.77" y1="1165.57" x2="843.55" y2="1145.87"/>
	<line class="st3" x1="855.28" y1="1169.78" x2="823.07" y2="1150.07"/>
	<path class="st2" d="M1115.8,657.48c-26.33,17.85-33.2,53.65-15.35,79.97c15.78,23.27,45.59,31.34,70.48,20.57
		c3.26-1.42,6.44-3.15,9.49-5.22c26.32-17.84,33.2-53.65,15.35-79.97c-9.29-13.7-23.42-22.12-38.57-24.55
		C1143.23,646.05,1128.42,648.93,1115.8,657.48z"/>
	<path d="M1157.21,648.28c-16.57,29.9-16.12,67.83,4.38,98.06c2.85,4.2,5.98,8.09,9.34,11.68c3.26-1.42,6.44-3.15,9.49-5.22
		c26.32-17.84,33.2-53.65,15.35-79.97C1186.49,659.14,1172.35,650.71,1157.21,648.28z"/>
	<circle cx="1226.78" cy="714.64" r="21.94"/>
	<ellipse transform="matrix(0.8277 -0.5611 0.5611 0.8277 -181.6902 743.8083)" cx="1120.49" cy="667.8" rx="9.92" ry="6.24"/>
	<ellipse transform="matrix(0.8277 -0.5611 0.5611 0.8277 -189.6253 753.0398)" cx="1131.56" cy="685.34" rx="9.92" ry="6.24"/>
	<line class="st4" x1="1144.2" y1="683.8" x2="1141.99" y2="673.44"/>
	<line class="st4" x1="1133.62" y1="659.64" x2="1124.71" y2="655.47"/>
	<path class="st4" d="M1102.57,679.37c0,0,7.22,6.56,14.15,1.19"/>
	<path class="st5" d="M1225,1052.2l-73.02-248.96c-8.95-30.5-36.45-51.83-68.21-52.9h0c-39.41-1.33-72.88,28.6-75.95,67.91
		l-2.07,26.59l-27.52-56.97c-10.97-22.7-33.67-37.4-58.88-38.11h0c-35.96-1.01-66.39,26.37-69.17,62.24l-22.28,287h124.18
		l2.62-61.71l21.38,69.18c13.54,51.08,57.83,80.58,109.9,80.66l34.55,0.05C1191.17,1187.28,1242.81,1120.55,1225,1052.2z"/>
	<line class="st6" x1="1006.23" y1="768.92" x2="996.51" y2="1098.99"/>
	<line class="st6" x1="961.92" y1="867.08" x2="952.08" y2="1098.99"/>
	<line class="st6" x1="1122.7" y1="866.42" x2="1113.31" y2="1098.77"/>
	<polyline class="st2" points="1102.47,1098.51 1101.6,1189.24 914.19,1191.29 1057.92,1141.24 1060.08,1098.7 	"/>
	<line class="st3" x1="1053.59" y1="1160.6" x2="1021.38" y2="1140.89"/>
	<line class="st3" x1="1034.77" y1="1165.57" x2="1002.55" y2="1145.87"/>
	<line class="st3" x1="1014.28" y1="1169.78" x2="982.07" y2="1150.07"/>
	<line class="st6" x1="996.51" y1="1098.99" x2="1113.92" y2="1098.46"/>
	<path class="st7" d="M1249.49,867.08c0,0-26.52,161.95-63.15,166.56c-36.63,4.62-91.49-130.87-91.49-130.87
		s-42.84,25.85-48.11,20.31s28.63-32.06,28.63-32.06s-49.8,21.54-53.13,13.54c-3.33-8,54.56-39.13,54.56-39.13
		s-45.79,8.41-47.18,3.49c-1.39-4.92,36.61-19.46,56.21-23.4c39.79-7.99,79.74,65.95,79.74,65.95l16.34-94.92"/>
	<path class="st7" d="M842.54,854.97c0,0,39.18,4.51,38.56,10.67c-0.62,6.15-44.72,13.95-44.1,13.95c0.62,0,44.1,26.67,42.05,35.28
		c-2.05,8.62-44.1-6.15-44.1-6.15s26.26,20.93,23.08,25.24c-3.18,4.3-36-6.36-36-6.36s-12.31-18.05-2.05-42.46
		C830.23,860.72,842.54,854.97,842.54,854.97z"/>
	<polygon class="st8" points="1283.77,1193.23 708.37,1193.23 708.37,731.69 996.07,489.37 1283.77,731.69 	"/>
	<path class="st0" d="M1777.17,229.47c0.61,28.09-21.66,51.35-49.76,51.96c-24.83,0.54-45.89-16.81-50.86-40.25
		c-0.65-3.08-1.03-6.25-1.1-9.51c-0.61-28.08,21.66-51.35,49.76-51.96c14.62-0.32,27.92,5.56,37.41,15.22
		C1771.37,203.86,1776.88,216.01,1777.17,229.47z"/>
	<g>
		<g>
			<path class="st9" d="M1675.53,237.5c27.95,16.69,66.8,30.43,97.92,13.84c0.78-0.42,0.25-1.69-0.6-1.44
				c-8.27,2.45-16.17,5.23-24.84,6.03c-8.44,0.78-16.97,0.11-25.26-1.58c-16.6-3.39-31.28-11.04-46.58-17.94
				C1675.44,236.08,1674.81,237.07,1675.53,237.5L1675.53,237.5z"/>
		</g>
	</g>
	<g>
		<g>
			<path class="st9" d="M1687.16,198.27c24.34,14.7,59.51,27.75,87.49,15.95c0.87-0.37,0.21-1.59-0.6-1.44
				c-7.31,1.4-14.38,3.06-21.88,3.21c-7.84,0.15-15.66-0.87-23.28-2.67c-14.53-3.45-27.52-10.17-41.08-16.14
				C1687.07,196.86,1686.45,197.84,1687.16,198.27L1687.16,198.27z"/>
		</g>
	</g>
	<polygon class="st0" points="366.7,1132.03 243.05,1019.48 196.01,1177.43 	"/>
	<g>
		<g>
			<path class="st9" d="M217,1107.58c22.2-2.97,43.68-1.8,64.66,6.55c18.8,7.49,35.8,20.22,55.25,25.95
				c0.84,0.25,1.41-1.03,0.61-1.44c-9.48-4.8-19.16-9.21-28.61-14.12c-9.23-4.8-18.52-9.53-28.27-13.21
				c-20.28-7.66-42.58-9.82-63.8-4.97C216.15,1106.49,216.28,1107.67,217,1107.58L217,1107.58z"/>
		</g>
	</g>
	<g>
		<g>
			<path class="st9" d="M267.21,1158.49c-5.96-17.71-9.28-35.97-7.64-54.7c0.84-9.62,3.08-19,6.36-28.07
				c3.19-8.82,7.72-17.01,11.19-25.69c0.34-0.86-0.98-1.32-1.44-0.6c-20.3,31.63-25.39,75.03-9.63,109.56
				C266.35,1159.63,267.44,1159.17,267.21,1158.49L267.21,1158.49z"/>
		</g>
	</g>
	<path class="st0" d="M1735.83,977.53c-70.91,63.37-179.77,57.26-243.14-13.65c-63.37-70.91-57.26-179.77,13.65-243.14"/>
	<path class="st6" d="M1515.03,984.83c27.72-41.74,77.08-105,111.43-86.57c26.92,14.45,34.21,69.91,35.17,118.23"/>
	<path class="st6" d="M1616.52,843.53c-45.52,15.56-103.76,29.86-118.62,0.4c-11.9-23.59,5.82-64.86,28.24-101.27"/>
	
		<rect x="1756.56" y="539.59" transform="matrix(0.3417 -0.9398 0.9398 0.3417 633.807 2093.6953)" class="st2" width="109.68" height="109.68"/>
	
		<rect x="207.54" y="193.51" transform="matrix(-0.6016 -0.7988 0.7988 -0.6016 221.823 607.343)" class="st2" width="109.68" height="109.68"/>
	<path class="st6" d="M223.17,209.23c3.94,27.66,4.22,58.41,3.47,82.82"/>
	<path class="st6" d="M294.11,293.1c-11.26-2.23-20.03-7.35-24.67-16.55c-10.24-20.29,1.45-52.94,19.19-84.85"/>
	<path class="st2" d="M1833.11,1183.22c0.61,28.09-21.66,51.35-49.76,51.96c-24.83,0.54-45.89-16.81-50.86-40.25
		c-0.65-3.08-1.03-6.25-1.1-9.51c-0.61-28.08,21.66-51.35,49.76-51.96c14.62-0.32,27.92,5.56,37.41,15.22
		C1827.31,1157.61,1832.81,1169.75,1833.11,1183.22z"/>
	<path class="st0" d="M217.62,626.78c0.61,28.09-21.66,51.35-49.76,51.96c-24.83,0.54-45.89-16.81-50.86-40.25
		c-0.65-3.08-1.03-6.25-1.1-9.51c-0.61-28.08,21.66-51.35,49.76-51.96c14.62-0.32,27.92,5.56,37.41,15.22
		C211.83,601.17,217.33,613.32,217.62,626.78z"/>
	<path class="st8" d="M1525.43,400.16c0,0-134.15,117.8-325.17,176.28c-63.09,19.33-132.39,32.18-205.1,32.18
		c-72.71,0-142.01-12.85-205.1-32.18c-191.02-58.48-325.17-176.28-325.17-176.28S702.31,191.7,995.17,191.7
		S1525.43,400.16,1525.43,400.16z"/>
	<path d="M1168.34,581.45c-53.26,16.32-111.78,27.17-173.17,27.17S875.27,597.76,822,581.45c10.2-86.58,83.84-153.75,173.17-153.75
		S1158.14,494.86,1168.34,581.45z"/>
	<line class="st8" x1="536.73" y1="346.5" x2="439.31" y2="275.97"/>
	<line class="st8" x1="668.64" y1="268.86" x2="588.6" y2="162.58"/>
	<line class="st8" x1="826.83" y1="208.54" x2="790.07" y2="97.7"/>
	<line class="st10" x1="1014.94" y1="188.92" x2="1018.3" y2="68.74"/>
	<line class="st8" x1="1465.26" y1="353.45" x2="1542.86" y2="268.01"/>
	<line class="st8" x1="1335.51" y1="277.16" x2="1399.77" y2="170.77"/>
	<line class="st8" x1="1188.46" y1="216.44" x2="1228.43" y2="108.71"/>
	<polyline class="st11" points="868.17,607.1 996.07,499.37 1123.97,607.1 	"/>
	<g>
		<path class="st2" d="M396.94,915.28c-13.12,0-26.32-4.41-37.37-13.5c-25.91-21.3-30.16-60.22-9.5-86.92L455.18,679
			c20.66-26.71,58.41-31.09,84.32-9.79c25.91,21.3,30.16,60.22,9.5,86.92L443.89,892C432.04,907.31,414.57,915.28,396.94,915.28z"/>
	</g>
	<path class="st6" d="M392.16,760.46c45.15,31.23,28.36,149.87,28.36,149.87"/>
	<path class="st6" d="M512.3,803.57c-22.28,1.57-40.72-2.76-48.26-18.16c-14.79-30.22,16.17-87.01,45.05-129.7"/>
</g>
</svg>
