<svg id="Layer" xmlns="http://www.w3.org/2000/svg" viewBox="0 0 1526.71 1183.24"><defs><style>.cls-1{fill:#fcedf2;}.cls-2{fill:#fcce44;}.cls-3{fill:#f5b4c4;}.cls-11,.cls-4,.cls-8{fill:none;stroke-miterlimit:10;}.cls-4{stroke:#170c2c;}.cls-4,.cls-8{stroke-width:3px;}.cls-5{fill:#c64f4b;}.cls-6{fill:#0083c8;}.cls-7{fill:#030207;}.cls-8{stroke:#fff;}.cls-9{fill:#fff;}.cls-10{fill:#170c2c;}.cls-11{stroke:#0083c8;stroke-width:12px;}</style></defs><title>5</title><path class="cls-1" d="M865.36,285.86c-107.8,36-131.22,216.12-221.52,253.36-95.1,39.21-184-55.24-126.54,69.53s-123.16,272.3,83.43,412c115.08,77.8,533.76,136.07,789.62-39.79,329.6-226.56,158.1-434.16-27.93-517C1099.94,347,1005.71,239,865.36,285.86Z" transform="translate(-222.19 -85.13)"/><path class="cls-2" d="M1311.16,885.21c10.86,15.26,34.9,16.78,34.9,16.78s6.44-23.21-4.42-38.47-34.89-16.78-34.89-16.78S1300.31,870,1311.16,885.21Z" transform="translate(-222.19 -85.13)"/><path class="cls-3" d="M1665.47,802.88c-10.85,15.25-34.89,16.78-34.89,16.78s-6.44-23.21,4.41-38.47,34.9-16.78,34.9-16.78S1676.33,787.62,1665.47,802.88Z" transform="translate(-222.19 -85.13)"/><line class="cls-4" x1="297.16" y1="1032.51" x2="374.55" y2="1181.47"/><line class="cls-4" x1="1184.64" y1="1061.79" x2="1246.82" y2="1181.47"/><line class="cls-4" x1="1089.4" y1="1032.51" x2="1166.8" y2="1181.47"/><path class="cls-5" d="M1075.75,689.08,1032,756.24a18,18,0,0,1-29.21,1.31l-55.93-71a18,18,0,0,1,14.83-29.11l99.68,3.86A18,18,0,0,1,1075.75,689.08Z" transform="translate(-222.19 -85.13)"/><path class="cls-6" d="M1021.68,675.61l3.86-40.11s21-4.54,21.14-18.66-14.89-11.79-14.89-11.79-1.63-19.86-20.81-26.46-37.8,18.19-40.49,34.13c-4,23.54,7.86,26.71,32.23,27.63l-3.57,26.33" transform="translate(-222.19 -85.13)"/><path class="cls-7" d="M1041.27,606.46s11.39-19.09-12-35.36-31.42-8.94-39-18-30,17.12-3.59,33.61S1013,601,1013,601s-5.41,12.91,2.26,15.37,16.06-9.63,16.06-9.63" transform="translate(-222.19 -85.13)"/><line class="cls-8" x1="762.54" y1="518.67" x2="755.59" y2="528.56"/><circle class="cls-9" cx="771.79" cy="516.54" r="3.29"/><circle class="cls-9" cx="758.61" cy="510.76" r="3.29"/><polyline class="cls-4" points="835.88 444.51 893.16 502.38 844.5 556.08"/><polyline class="cls-4" points="734.25 557.82 688.18 501.32 749.75 442.09"/><path class="cls-4" d="M1095.11,487.43c11.61,8.19,96.2,62.79,93.58,101.36C1186.3,624,1086,703.64,1086,703.64" transform="translate(-222.19 -85.13)"/><path class="cls-4" d="M923.81,694.19s-94.66-78.88-87.47-116.43c6-31.63,78.6-79.46,102-93.74" transform="translate(-222.19 -85.13)"/><path class="cls-4" d="M1058.06,529.64c-14.88,6.1-22.48,9.58-40.75,9.58-21.41,0-28.88-3.82-45.38-12" transform="translate(-222.19 -85.13)"/><path class="cls-7" d="M1243.28,1266.6h-166L1016.41,931,955.52,1266.6h-166s38.27-20.22,72.21-21.41l78-385.58c8-39.63,39.87-67.81,76.65-67.81h0c36.78,0,68.63,28.18,76.65,67.81l78,385.58C1205,1246.38,1243.28,1266.6,1243.28,1266.6Z" transform="translate(-222.19 -85.13)"/><path class="cls-10" d="M545.34,412.56A92.44,92.44,0,0,1,596.48,582l-1.91,1.27.73,2.17L686,857.76H636.25l-86-258.3-4.58-13.77a98.47,98.47,0,0,0-18.08-171.42,93.55,93.55,0,0,1,17.8-1.71m0-3a95.42,95.42,0,0,0-28,4.19,95.45,95.45,0,0,1,24.75,170.74l5.3,15.92,86.74,260.35h56.09l-92-276.27a95.43,95.43,0,0,0-52.8-174.93Z" transform="translate(-222.19 -85.13)"/><path class="cls-6" d="M487.24,600.41l5.3-15.92A95.45,95.45,0,0,1,517.3,413.75a95.45,95.45,0,0,1,24.75,170.74l5.3,15.92,86.74,260.35H400.5Z" transform="translate(-222.19 -85.13)"/><path class="cls-9" d="M328.3,1042.84l-1.14-.13a15.25,15.25,0,1,1,15-7.78l-.56,1,36,35-41.44,21.53Z" transform="translate(-222.19 -85.13)"/><path class="cls-10" d="M328.77,1013.78h0a13.77,13.77,0,0,1,12.06,20.42l-1.11,2,1.64,1.6,33.72,32.69-37.75,19.62L330,1043.73l-.36-2.26-2.28-.25a13.75,13.75,0,0,1-4.87-25.88,13.47,13.47,0,0,1,6.32-1.56m0-3A16.76,16.76,0,0,0,327,1044.2l8,50.5,45.14-23.45-36.71-35.6a16.76,16.76,0,0,0-14.68-24.87Z" transform="translate(-222.19 -85.13)"/><path class="cls-5" d="M497.67,1131l-8-50.49a16.75,16.75,0,1,1,16.46-8.55l36.7,35.59Z" transform="translate(-222.19 -85.13)"/><line class="cls-4" x1="83.96" y1="1093.49" x2="129.67" y2="1181.47"/><path class="cls-6" d="M284.47,1191.93l-8-50.49a16.75,16.75,0,1,1,16.46-8.55l36.7,35.59Z" transform="translate(-222.19 -85.13)"/><line class="cls-4" x1="1456.17" y1="1093.34" x2="1501.88" y2="1181.32"/><path class="cls-5" d="M1656.68,1191.78l-8-50.5a16.76,16.76,0,1,1,16.45-8.55l36.71,35.6Z" transform="translate(-222.19 -85.13)"/><line class="cls-4" y1="1181.47" x2="1526.71" y2="1181.47"/><path class="cls-4" d="M938.38,484a70.56,70.56,0,0,1-3-20.52c0-35.06,23.44-65.47,58.47-74.06V187.57c0-10.24,8.21-18.54,19.49-18.54,11.6,0,19.49,8.3,19.49,18.54v9.75h40.26v26h-40V239h25.74v22.11h-26.21V388.32c40.78,4.36,66.7,36.36,66.7,75.18a70.42,70.42,0,0,1-4.18,23.93" transform="translate(-222.19 -85.13)"/><line class="cls-4" x1="135.4" y1="997.84" x2="230.81" y2="1181.47"/><path class="cls-6" d="M1426.79,1044.37l-8-50.5a16.76,16.76,0,1,1,16.45-8.55l36.71,35.6Z" transform="translate(-222.19 -85.13)"/><path class="cls-9" d="M1378,1107.73l-1.15-.12a15.26,15.26,0,0,1-5.4-28.71,15,15,0,0,1,7-1.72,15.26,15.26,0,0,1,13.37,22.64l-.56,1,36,34.94-41.45,21.53Z" transform="translate(-222.19 -85.13)"/><path class="cls-10" d="M1378.51,1078.68h0a13.76,13.76,0,0,1,12,20.42l-1.1,2,1.64,1.6,33.72,32.7L1387.07,1155l-7.37-46.38-.36-2.27-2.28-.25a13.75,13.75,0,0,1,1.45-27.43m0-3a16.76,16.76,0,0,0-1.78,33.42l8,50.49,45.13-23.45-36.7-35.59a16.76,16.76,0,0,0-14.68-24.87Z" transform="translate(-222.19 -85.13)"/><line class="cls-4" x1="592.28" y1="1127.04" x2="620.55" y2="1181.47"/><path class="cls-6" d="M792.39,1224.85l-8-50.5a16.76,16.76,0,1,1,16.45-8.55l36.71,35.6Z" transform="translate(-222.19 -85.13)"/><line class="cls-4" x1="715.59" y1="1062.57" x2="777.77" y2="1182.25"/><path class="cls-9" d="M909,1108.51l-1.14-.12a15.26,15.26,0,1,1,15-7.78l-.55,1,36,34.94-41.44,21.53Z" transform="translate(-222.19 -85.13)"/><path class="cls-10" d="M909.46,1079.46h0a13.76,13.76,0,0,1,12,20.42l-1.11,2,1.65,1.59,33.72,32.7L918,1155.79l-7.38-46.38-.36-2.27-2.28-.24a13.76,13.76,0,0,1-4.87-25.89,13.59,13.59,0,0,1,6.33-1.55m0-3a16.76,16.76,0,0,0-1.78,33.42l8,50.5,45.13-23.46-36.7-35.59a16.76,16.76,0,0,0-14.68-24.87Z" transform="translate(-222.19 -85.13)"/><path class="cls-3" d="M1290.82,1133.57l-8-50.49a16.76,16.76,0,1,1,16.45-8.55l36.71,35.59Z" transform="translate(-222.19 -85.13)"/><line class="cls-4" x1="1227.17" y1="947.51" x2="1349.29" y2="1182.55"/><line class="cls-4" x1="321.8" y1="499.29" x2="373.47" y2="499.29"/><line class="cls-4" x1="1169.32" y1="818.25" x2="1105.09" y2="818.25"/><line class="cls-4" x1="1159.86" y1="818.25" x2="1159.86" y2="842.48"/><line class="cls-4" x1="1150.17" y1="818.25" x2="1150.17" y2="834.7"/><path class="cls-2" d="M1380.64,885.21c-10.85,15.26-34.89,16.78-34.89,16.78s-6.45-23.21,4.41-38.47,34.89-16.78,34.89-16.78S1391.49,870,1380.64,885.21Z" transform="translate(-222.19 -85.13)"/><circle class="cls-4" cx="1088.64" cy="818.25" r="16.45"/><path class="cls-2" d="M634.39,1027.23c10.86,15.26,34.9,16.78,34.9,16.78s6.44-23.21-4.42-38.46S630,988.77,630,988.77,623.54,1012,634.39,1027.23Z" transform="translate(-222.19 -85.13)"/><line class="cls-4" x1="492.55" y1="960.27" x2="428.33" y2="960.27"/><line class="cls-4" x1="483.09" y1="960.27" x2="483.09" y2="984.51"/><line class="cls-4" x1="473.4" y1="960.27" x2="473.4" y2="976.72"/><path class="cls-2" d="M703.87,1027.23C693,1042.49,669,1044,669,1044s-6.44-23.21,4.41-38.46,34.9-16.78,34.9-16.78S714.73,1012,703.87,1027.23Z" transform="translate(-222.19 -85.13)"/><circle class="cls-4" cx="411.88" cy="960.27" r="16.45"/><line class="cls-4" x1="1362.94" y1="735.91" x2="1427.17" y2="735.91"/><line class="cls-4" x1="1372.4" y1="735.91" x2="1372.4" y2="760.15"/><line class="cls-4" x1="1382.1" y1="735.91" x2="1382.1" y2="752.36"/><path class="cls-3" d="M1596,802.88c10.86,15.25,34.9,16.78,34.9,16.78s6.44-23.21-4.42-38.47-34.89-16.78-34.89-16.78S1585.14,787.62,1596,802.88Z" transform="translate(-222.19 -85.13)"/><circle class="cls-4" cx="1443.62" cy="735.91" r="16.45"/><line class="cls-11" x1="788.04" y1="0.11" x2="788.99" y2="53.47"/><line class="cls-11" x1="723.71" y1="41.63" x2="753.85" y2="75.36"/><line class="cls-11" x1="854.28" y1="41.63" x2="824.14" y2="75.36"/><circle class="cls-4" cx="794.69" cy="378.79" r="37.04"/><path class="cls-3" d="M343.81,749.63c-10.85,15.26-34.89,16.78-34.89,16.78s-6.45-23.21,4.41-38.47,34.89-16.78,34.89-16.78S354.66,734.37,343.81,749.63Z" transform="translate(-222.19 -85.13)"/><line class="cls-4" x1="41.28" y1="682.67" x2="105.5" y2="682.67"/><line class="cls-4" x1="50.74" y1="682.67" x2="50.74" y2="706.9"/><line class="cls-4" x1="60.43" y1="682.67" x2="60.43" y2="699.12"/><path class="cls-3" d="M274.33,749.63c10.86,15.26,34.9,16.78,34.9,16.78s6.44-23.21-4.42-38.47-34.89-16.78-34.89-16.78S263.48,734.37,274.33,749.63Z" transform="translate(-222.19 -85.13)"/><circle class="cls-4" cx="121.95" cy="682.67" r="16.45"/><line class="cls-8" x1="716.08" y1="1063.52" x2="744.19" y2="1117.63"/><line class="cls-8" x1="612.65" y1="1166.27" x2="620.55" y2="1181.47"/></svg>