<?xml version="1.0" encoding="utf-8"?>
<!-- Generator: Adobe Illustrator 23.0.0, SVG Export Plug-In . SVG Version: 6.00 Build 0)  -->
<svg version="1.1" id="Layer" xmlns="http://www.w3.org/2000/svg" xmlns:xlink="http://www.w3.org/1999/xlink" x="0px" y="0px"
	 viewBox="0 0 1986 1352.92" style="enable-background:new 0 0 1986 1352.92;" xml:space="preserve">
<style type="text/css">
	.st0{fill:#FFFFFF;}
	.st1{fill:#170C2C;}
	.st2{fill:#FFFFFF;stroke:#170C2C;stroke-width:3;stroke-miterlimit:10;}
	.st3{fill:#FFC200;}
	.st4{fill:#0083C8;}
	.st5{fill:#D14D33;}
	.st6{fill:none;stroke:#FFFFFF;stroke-width:4;stroke-miterlimit:10;}
	.st7{fill:none;stroke:#000000;stroke-width:4;stroke-miterlimit:10;}
	.st8{fill:#030207;}
	.st9{fill:#FFFFFF;stroke:#000000;stroke-width:3.5;stroke-linejoin:bevel;stroke-miterlimit:10;}
	.st10{fill:none;stroke:#000000;stroke-width:4;stroke-linejoin:bevel;stroke-miterlimit:10;}
	.st11{fill:none;stroke:#FFFFFF;stroke-width:3;stroke-miterlimit:10;}
	.st12{fill:none;stroke:#D14D33;stroke-width:4;stroke-miterlimit:10;}
</style>
<g id="Back">
	<g>
		<path class="st0" d="M1770.54,173.13c-6.22,0-11.28-5.06-11.28-11.28c0-6.22,5.06-11.28,11.28-11.28s11.28,5.06,11.28,11.28
			C1781.82,168.07,1776.76,173.13,1770.54,173.13z"/>
		<path class="st1" d="M1770.54,152.07c5.39,0,9.78,4.39,9.78,9.78c0,5.39-4.39,9.78-9.78,9.78c-5.39,0-9.78-4.39-9.78-9.78
			C1760.76,156.45,1765.15,152.07,1770.54,152.07 M1770.54,149.07c-7.06,0-12.78,5.72-12.78,12.78s5.72,12.78,12.78,12.78
			s12.78-5.72,12.78-12.78S1777.6,149.07,1770.54,149.07L1770.54,149.07z"/>
	</g>
	<g>
		<path class="st0" d="M1828.34,972.11c-6.22,0-11.28-5.06-11.28-11.28c0-6.22,5.06-11.28,11.28-11.28s11.28,5.06,11.28,11.28
			C1839.61,967.05,1834.56,972.11,1828.34,972.11z"/>
		<path class="st1" d="M1828.34,951.05c5.39,0,9.78,4.39,9.78,9.78c0,5.39-4.39,9.78-9.78,9.78c-5.39,0-9.78-4.39-9.78-9.78
			C1818.56,955.43,1822.94,951.05,1828.34,951.05 M1828.34,948.05c-7.06,0-12.78,5.72-12.78,12.78s5.72,12.78,12.78,12.78
			s12.78-5.72,12.78-12.78S1835.39,948.05,1828.34,948.05L1828.34,948.05z"/>
	</g>
	<g>
		<path class="st0" d="M969.09,1229.47c-6.22,0-11.28-5.06-11.28-11.28c0-6.22,5.06-11.28,11.28-11.28s11.28,5.06,11.28,11.28
			C980.37,1224.41,975.31,1229.47,969.09,1229.47z"/>
		<path class="st1" d="M969.09,1208.41c5.39,0,9.78,4.39,9.78,9.78c0,5.39-4.39,9.78-9.78,9.78c-5.39,0-9.78-4.39-9.78-9.78
			C959.31,1212.8,963.7,1208.41,969.09,1208.41 M969.09,1205.41c-7.06,0-12.78,5.72-12.78,12.78s5.72,12.78,12.78,12.78
			s12.78-5.72,12.78-12.78S976.15,1205.41,969.09,1205.41L969.09,1205.41z"/>
	</g>
	<g>
		<path class="st0" d="M108.39,792.6c-1.28,0-2.56-0.22-3.78-0.65c-2.84-1.01-5.11-3.06-6.41-5.78c-1.29-2.72-1.45-5.78-0.44-8.62
			c1.6-4.49,5.87-7.5,10.63-7.5c1.28,0,2.56,0.22,3.78,0.66c2.84,1.01,5.11,3.06,6.41,5.78c1.29,2.72,1.45,5.78,0.44,8.62
			C117.43,789.59,113.16,792.6,108.39,792.6z"/>
		<path class="st1" d="M108.4,771.54L108.4,771.54c1.11,0,2.21,0.19,3.27,0.57c5.08,1.81,7.75,7.41,5.94,12.49
			c-1.38,3.89-5.09,6.51-9.21,6.51c-1.11,0-2.21-0.19-3.28-0.57c-5.08-1.81-7.75-7.41-5.94-12.49
			C100.56,774.15,104.27,771.54,108.4,771.54 M108.39,768.54c-5.26,0-10.18,3.27-12.04,8.5c-2.36,6.65,1.11,13.96,7.76,16.32
			c1.42,0.5,2.86,0.74,4.28,0.74c5.26,0,10.18-3.27,12.04-8.5c2.36-6.65-1.11-13.96-7.76-16.32
			C111.26,768.78,109.82,768.54,108.39,768.54L108.39,768.54z"/>
	</g>
	<g>
		
			<rect x="1586.75" y="399.08" transform="matrix(0.8282 -0.5604 0.5604 0.8282 45.3573 964.3726)" class="st0" width="18.23" height="18.23"/>
		<path class="st1" d="M1597.91,397.62l8.53,12.61l-12.61,8.53l-8.53-12.61L1597.91,397.62 M1598.71,393.46l-17.58,11.89
			l11.89,17.58l17.58-11.89L1598.71,393.46L1598.71,393.46z"/>
	</g>
	<g>
		
			<rect x="434.52" y="132.38" transform="matrix(0.7791 -0.6269 0.6269 0.7791 9.3022 309.3827)" class="st0" width="18.23" height="18.23"/>
		<path class="st1" d="M444.79,130.79l9.55,11.86l-11.86,9.55l-9.55-11.86L444.79,130.79 M445.25,126.57l-16.54,13.31l13.31,16.54
			l16.54-13.31L445.25,126.57L445.25,126.57z"/>
	</g>
	<line class="st2" x1="981.76" y1="252.8" x2="999.7" y2="287.58"/>
	<line class="st2" x1="351.19" y1="970.27" x2="369.12" y2="1005.04"/>
	<line class="st2" x1="350.24" y1="480.76" x2="312.3" y2="490.28"/>
	<line class="st2" x1="179.25" y1="1228.72" x2="148.76" y2="1253.25"/>
	<line class="st2" x1="1195.83" y1="98.54" x2="1233.1" y2="110.44"/>
	<line class="st2" x1="1879.57" y1="543.95" x2="1895" y2="579.91"/>
	<line class="st2" x1="970.5" y1="777.47" x2="1004.38" y2="757.91"/>
	<line class="st2" x1="1667.4" y1="1240.75" x2="1701.29" y2="1221.19"/>
	<line class="st2" x1="1274.67" y1="1104.01" x2="1271.82" y2="1067.43"/>
	<line class="st2" x1="164.05" y1="311.61" x2="144.72" y2="280.42"/>
</g>
<g id="Woman">
	
		<rect x="1238.53" y="393.38" transform="matrix(0.6583 -0.7527 0.7527 0.6583 78.8514 1122.7655)" class="st3" width="75.4" height="162.28"/>
	<path class="st4" d="M904.24,405.69c7.79,63.48-37.36,121.26-100.85,129.05S682.13,497.38,674.34,433.9"/>
	<polyline class="st5" points="432.6,749.82 348.86,687.22 249.9,860.2 370.81,752.64 427.36,794.53 	"/>
	<line class="st6" x1="350.6" y1="746.64" x2="352.21" y2="786.76"/>
	<line class="st6" x1="336.23" y1="761.54" x2="337.85" y2="801.66"/>
	<line class="st6" x1="321.72" y1="778.39" x2="323.33" y2="818.51"/>
	<polyline class="st5" points="547.06,1032.6 443.79,1077.37 563.69,1240.99 515.58,1087.98 583.6,1058.89 	"/>
	<line class="st6" x1="504.45" y1="1102.74" x2="540.31" y2="1120.81"/>
	<line class="st6" x1="510.51" y1="1122.54" x2="546.36" y2="1140.61"/>
	<line class="st6" x1="518.19" y1="1143.41" x2="554.04" y2="1161.48"/>
	<path class="st5" d="M835.26,342.81c0.6,27.75-21.4,50.73-49.15,51.33c-24.53,0.53-45.34-16.61-50.25-39.76
		c-0.64-3.04-1.01-6.17-1.08-9.39c-0.6-27.74,21.4-50.73,49.15-51.33c14.44-0.31,27.58,5.49,36.95,15.04
		C829.54,317.51,834.98,329.51,835.26,342.81z"/>
	<path d="M820.89,308.7c-12.91,26.9-40.13,45.74-72,46.43c-4.42,0.1-8.78-0.17-13.03-0.75c-0.64-3.04-1.01-6.17-1.08-9.39
		c-0.6-27.74,21.4-50.73,49.15-51.33C798.38,293.35,811.51,299.15,820.89,308.7z"/>
	<circle cx="750.53" cy="285.72" r="19.15"/>
	<circle cx="695.52" cy="238.2" r="54.51"/>
	<ellipse transform="matrix(0.9998 -0.0216 0.0216 0.9998 -7.4122 17.9477)" cx="825.55" cy="351.45" rx="5.45" ry="8.66"/>
	<ellipse transform="matrix(0.9998 -0.0216 0.0216 0.9998 -7.4378 17.5568)" cx="807.48" cy="352.44" rx="5.45" ry="8.66"/>
	<path class="st7" d="M824.44,366.19c0,0-8.31-1.82-8-9.47"/>
	<path class="st8" d="M648.69,694.68L600.8,849.96L445.16,732.67c0,0-38.45-0.28-61.74,33.16c-22.72,32.61-5.84,64.01-5.84,64.01
		l264.1,227.06l114.68-250.06l1.11,111.09l-206.52,95.58c0,0-13.65,37.39,6.06,74.09c19.14,35.63,45.88,34.42,45.88,34.42
		L820.97,1039c33.64-12.81,56.57-44.25,58.47-80.2l2.29-221.17c3.79-71.69-39.27-129.96-112.62-136.03
		C703.61,596.19,665.37,637.34,648.69,694.68z"/>
	<path class="st6" d="M568.91,996.58c35.01,31.34,90.5,24.14,109.35-14.35L784.5,746.9"/>
	<path class="st9" d="M924.42,409.76L1067,448.83c0,0,143.45-52.64,174.58-56.24c23.48-2.72,41.9,31.28,37.19,33.05l-17.94-23.92
		c0,0,24.73,29.41,18.25,32.35c-6.48,2.95-30.69-27.25-30.69-27.25s19.7,26.47,13.81,28.24c-5.89,1.77-25.59-22.62-40.32-18.95
		c-14.73,3.67-19.7,23.23-12.63,34.42c7.07,11.19,27.24,6.28,29.16,13.69c1.39,5.36-40.54-0.82-54.16,3.37
		c-13.86,4.26-78.44,41.44-118.2,43.23c-44.48,2-153.99-36.29-153.99-36.29"/>
	<path class="st10" d="M663.87,445.05c0,0-115.34,25.26-147.29,81.18c-22.96,40.17-2.44,134.74-2.44,134.74"/>
	<path class="st10" d="M688.75,510.3c-3.35,0.84-116.74,43.52-116.74,43.52v114.21"/>
	<circle class="st5" cx="539.02" cy="687.22" r="46.66"/>
	<circle class="st5" cx="1173.79" cy="653.85" r="81.77"/>
	<circle class="st3" cx="1647.93" cy="662.43" r="42.26"/>
	<circle class="st5" cx="1343.48" cy="845.52" r="22.9"/>
	<circle class="st3" cx="1054.35" cy="958.23" r="31.87"/>
	<circle class="st5" cx="1389.76" cy="415.55" r="18.52"/>
	<path class="st10" d="M500.98,718.96c0,0,25.23-50.08,32.27-45.49c7.05,4.59-9.75,47.49-9.75,47.49s23.71-55.34,32.15-49.79
		s-6.96,48.93-6.96,48.93s13.03-28.36,19.73-25.36c6.69,3-8.31,38.34-8.31,38.34"/>
	<path class="st10" d="M492.33,669.24c0,0,47.96-10.27-2.68,23.82"/>
	<path class="st3" d="M1192.97,875.82c-16.87,0-33.45-8-43.78-22.92c-16.72-24.15-10.69-57.29,13.46-74.01l209.12-144.76
		c24.16-16.72,57.29-10.69,74.01,13.46c16.72,24.15,10.69,57.29-13.46,74.01l-209.12,144.76
		C1213.96,872.75,1203.41,875.82,1192.97,875.82z"/>
	<path class="st5" d="M1457.94,964.7c-14.59,0-28.35-8.87-33.88-23.32l-42.4-110.82c-7.16-18.71,2.2-39.68,20.91-46.83
		c18.71-7.16,39.67,2.21,46.83,20.91l42.4,110.82c7.16,18.71-2.2,39.67-20.91,46.83C1466.63,963.93,1462.25,964.7,1457.94,964.7z"/>
	
		<rect x="1479.13" y="609.69" transform="matrix(0.97 0.2432 -0.2432 0.97 213.2418 -351.9852)" class="st5" width="106.01" height="155.87"/>
	
		<rect x="1707.77" y="622.1" transform="matrix(0.9881 -0.1536 0.1536 0.9881 -77.4634 272.2116)" class="st5" width="30.77" height="30.77"/>
	<rect x="1343.18" y="268" transform="matrix(0.866 0.5 -0.5 0.866 347.755 -639.2489)" class="st3" width="47.1" height="122.59"/>
	<polygon class="st3" points="1092.02,561.93 981.87,561.93 1044.51,646.06 	"/>
	<polygon class="st5" points="1075.44,859.35 1193.01,890.88 1105.32,970.86 	"/>
	<polygon class="st3" points="1428.06,1006.64 1532.14,971.77 1512.86,1077.79 	"/>
	<line class="st11" x1="560.23" y1="852.18" x2="538.56" y2="879.65"/>
	<line class="st11" x1="461.07" y1="744.66" x2="453.34" y2="754.46"/>
	<line class="st11" x1="829.32" y1="917.59" x2="815.37" y2="942.19"/>
	<line class="st11" x1="600.8" y1="957.7" x2="586.85" y2="982.3"/>
	<line class="st11" x1="603.19" y1="872.74" x2="628.53" y2="865.91"/>
	<line class="st11" x1="646.16" y1="820.23" x2="668.2" y2="846.3"/>
	<line class="st11" x1="576.96" y1="900.27" x2="598.99" y2="926.34"/>
	<line class="st11" x1="622.52" y1="771.92" x2="629.12" y2="779.73"/>
	<line class="st11" x1="668.15" y1="795.9" x2="674.02" y2="774.66"/>
	<line class="st11" x1="711.54" y1="797.34" x2="727.31" y2="820.34"/>
	<line class="st11" x1="416.97" y1="756.19" x2="432.73" y2="779.19"/>
	<line class="st11" x1="701.98" y1="877.88" x2="709.33" y2="854.01"/>
	<line class="st11" x1="818.89" y1="814.09" x2="846.41" y2="826"/>
	<line class="st11" x1="711.71" y1="938.96" x2="729.61" y2="953.52"/>
	<line class="st11" x1="780.06" y1="861.56" x2="796.83" y2="844.57"/>
	<line class="st11" x1="640.41" y1="907.88" x2="657.18" y2="890.89"/>
	<line class="st11" x1="790.29" y1="819.39" x2="786.6" y2="795.29"/>
	<line class="st11" x1="666.16" y1="955.39" x2="662.48" y2="931.29"/>
	<line class="st11" x1="709.69" y1="767.94" x2="736.09" y2="757.71"/>
	<line class="st11" x1="527.49" y1="927.71" x2="554.86" y2="934.88"/>
	<line class="st11" x1="847.19" y1="662.85" x2="865.44" y2="684.45"/>
	<line class="st11" x1="825.44" y1="766.29" x2="808.47" y2="760.96"/>
	<line class="st11" x1="644.44" y1="1106.2" x2="636.91" y2="1093.14"/>
	<line class="st11" x1="819.51" y1="1039.56" x2="815.79" y2="1033.11"/>
	<line class="st11" x1="772.79" y1="734.72" x2="778.7" y2="709.48"/>
	<line class="st11" x1="654.97" y1="746.35" x2="674.52" y2="718.36"/>
	<line class="st11" x1="735.39" y1="729.24" x2="711.41" y2="718.37"/>
	<line class="st11" x1="788.09" y1="678.64" x2="763.13" y2="677.67"/>
	<line class="st11" x1="722.57" y1="651.28" x2="724.85" y2="680.45"/>
	<line class="st11" x1="679.62" y1="635.36" x2="685.81" y2="649.79"/>
	<line class="st11" x1="811.37" y1="627.5" x2="794.4" y2="650.13"/>
	<line class="st11" x1="824.52" y1="723.61" x2="833.04" y2="703.28"/>
	<line class="st11" x1="882.88" y1="726.21" x2="869.9" y2="726.21"/>
	<line class="st11" x1="850.19" y1="778.43" x2="865.34" y2="758.59"/>
	<line class="st11" x1="493.55" y1="930.66" x2="496.59" y2="923.97"/>
	<line class="st11" x1="782.73" y1="931.29" x2="785.91" y2="898.92"/>
	<line class="st11" x1="825.58" y1="997.54" x2="812.2" y2="977.77"/>
	<line class="st11" x1="851.2" y1="888.38" x2="837.83" y2="868.61"/>
	<line class="st11" x1="582.83" y1="1047.4" x2="569.45" y2="1027.63"/>
	<line class="st11" x1="795.18" y1="1014.49" x2="773.46" y2="1025.57"/>
	<line class="st11" x1="874.63" y1="985.72" x2="852.92" y2="996.8"/>
	<line class="st11" x1="754.48" y1="990.48" x2="766.88" y2="965.06"/>
	<line class="st11" x1="722.18" y1="1076.61" x2="730.12" y2="1060.31"/>
	<line class="st11" x1="860.95" y1="924.22" x2="879.81" y2="923.27"/>
	<line class="st11" x1="880.44" y1="861.76" x2="869.9" y2="849.23"/>
	<line class="st11" x1="653.82" y1="1063.49" x2="664.01" y2="1030.91"/>
	<line class="st11" x1="614.87" y1="1067.35" x2="593.79" y2="1073.79"/>
	<line class="st11" x1="652.74" y1="984.35" x2="628.65" y2="990.95"/>
	<line class="st11" x1="881.96" y1="801.95" x2="873.9" y2="805.49"/>
	<line class="st11" x1="699.58" y1="1004.85" x2="723.83" y2="1007.39"/>
	<line class="st11" x1="401.81" y1="798.83" x2="387.95" y2="823.49"/>
	<line class="st11" x1="423.76" y1="870.75" x2="431.2" y2="868.72"/>
	<line class="st11" x1="435.68" y1="821.85" x2="457.81" y2="847.84"/>
	<line class="st11" x1="464.41" y1="803.24" x2="470.21" y2="781.98"/>
	<line class="st11" x1="503.57" y1="809.71" x2="531.3" y2="812.61"/>
	<line class="st11" x1="489.07" y1="872.12" x2="496.33" y2="848.23"/>
	<line class="st11" x1="736.38" y1="623.18" x2="760.08" y2="628.86"/>
	<line class="st11" x1="642.74" y1="685.1" x2="666.45" y2="690.78"/>
	<line class="st12" x1="1173.15" y1="604.38" x2="1150.74" y2="633.43"/>
</g>
</svg>
