<svg id="Layer" xmlns="http://www.w3.org/2000/svg" viewBox="0 0 1535.49 956.2"><defs><style>.cls-1{fill:#fcce44;}.cls-2,.cls-3,.cls-6{fill:none;}.cls-2,.cls-3{stroke:#fff;stroke-width:2px;}.cls-2{stroke-linejoin:round;}.cls-3,.cls-6{stroke-miterlimit:10;}.cls-4{fill:#f5b4c4;}.cls-5{fill:#c64f4b;}.cls-6{stroke:#170c2c;stroke-width:3px;}.cls-7{fill:#170c2c;}.cls-8{fill:#0076aa;}.cls-9{fill:#fff;}.cls-10{fill:#16171e;}</style></defs><title>7</title><path class="cls-1" d="M1376.29,944.51l28.22,57.18a18.2,18.2,0,0,0,13.73,10l63.11,9.17a18.25,18.25,0,0,1,10.11,31.13l-45.66,44.51a18.26,18.26,0,0,0-5.25,16.15l10.78,62.85a18.24,18.24,0,0,1-26.47,19.23L1368.41,1165a18.21,18.21,0,0,0-17,0L1295,1194.71a18.24,18.24,0,0,1-26.47-19.23l10.78-62.85a18.26,18.26,0,0,0-5.25-16.15L1228.39,1052a18.25,18.25,0,0,1,10.11-31.13l63.1-9.17a18.22,18.22,0,0,0,13.74-10l28.22-57.18A18.25,18.25,0,0,1,1376.29,944.51Z" transform="translate(-239.56 -240.69)"/><path class="cls-2" d="M1478.48,1065.59c-.15-14.92-.92-30.66-1.93-45.44" transform="translate(-239.56 -240.69)"/><path class="cls-2" d="M1306.35,1010.3c24.45,43.31,51,83.34,63.94,79.91,19.24-5.11,21.09-77.58,21.09-77.58s23.07,79.46,50.87,109.93" transform="translate(-239.56 -240.69)"/><path class="cls-3" d="M1367.25,1164.48c5.43-20.22,8.76-45.4,17.15-45.7,6.17-.23,27.54,34.52,49.74,73.89" transform="translate(-239.56 -240.69)"/><path class="cls-3" d="M1256.62,1018.21c27.07,47.35,59.5,122,79.58,154.84" transform="translate(-239.56 -240.69)"/><circle class="cls-4" cx="554.97" cy="911.13" r="43.14"/><path d="M773,352s23.82,42,12.63,73.25-58.41,38.2-58.41,38.2l-71-82.12Z" transform="translate(-239.56 -240.69)"/><path class="cls-5" d="M511.33,511.87A128.72,128.72,0,0,1,766,549.75Z" transform="translate(-239.56 -240.69)"/><path class="cls-1" d="M655.09,426.48,686.77,349s-18.57-23.49-6.24-38.87,26.52.49,26.52.49,19.37-20,45.9-10.07S780,346.47,768.8,366.05c-16.59,28.92-36.12,37.62-63.21,17l-15.38,43.48" transform="translate(-239.56 -240.69)"/><line class="cls-6" x1="512.02" y1="116.96" x2="510.82" y2="132.84"/><path d="M663.81,405.16c31.4,4.31,56.78-93,56.78-93C740.84,340.83,775,347.69,775,347.69s11.79-46.72-37.41-62.75-73.07,9.22-73.07,9.22S609,283.54,590,323.64,602,410.16,602,410.16,638.87,401.73,663.81,405.16Z" transform="translate(-239.56 -240.69)"/><ellipse class="cls-7" cx="762.08" cy="357.24" rx="5.79" ry="3.8" transform="translate(-222.34 508.43) rotate(-52.87)"/><ellipse class="cls-7" cx="745.5" cy="348.54" rx="5.79" ry="3.8" transform="translate(-221.98 491.77) rotate(-52.87)"/><path class="cls-8" d="M993.36,614c-94.08,43.51-126.7,232.18-119.59,301.43s62.15,241.85,62.15,241.85-90,8.59-83.07,38.15h213.3l-60-265.69,56.24-168,161-25.69,87.07,222.08,149.16-78.17s-34.77-17.45-67.49-10.43c0,0-53-227-111-265.45C1238.67,575.87,1059,583.59,993.36,614Z" transform="translate(-239.56 -240.69)"/><path class="cls-9" d="M851.8,602a22.16,22.16,0,0,1-3.72-.32L393.54,522.78a21.58,21.58,0,0,1,3.66-42.84,21.16,21.16,0,0,1,3.72.32l454.54,78.89A21.58,21.58,0,0,1,851.8,602Z" transform="translate(-239.56 -240.69)"/><path class="cls-7" d="M397.2,478.44v3h0a20.13,20.13,0,0,1,3.46.3l454.55,78.89a20.08,20.08,0,0,1-3.41,39.86,20.22,20.22,0,0,1-3.46-.3L393.8,521.3a20.08,20.08,0,0,1,3.4-39.86v-3m0,0a23.09,23.09,0,0,0-22.71,19.13h0a23.08,23.08,0,0,0,18.79,26.68l454.55,78.9a23.07,23.07,0,0,0,26.68-18.79h0a23.08,23.08,0,0,0-18.79-26.69L401.18,478.78a23.51,23.51,0,0,0-4-.34Z" transform="translate(-239.56 -240.69)"/><path class="cls-5" d="M539.27,732.31C411.4,732.31,307.74,836,307.74,963.85s103.66,231.53,231.53,231.53,231.54-103.66,231.54-231.53S667.14,732.31,539.27,732.31Zm0,346.91A115.37,115.37,0,1,1,654.64,963.85,115.37,115.37,0,0,1,539.27,1079.22Z" transform="translate(-239.56 -240.69)"/><circle class="cls-8" cx="646.1" cy="182.31" r="37.15"/><circle class="cls-10" cx="955.65" cy="160.38" r="67.16"/><path class="cls-9" d="M539.27,731a23.2,23.2,0,1,1,23.2-23.2A23.23,23.23,0,0,1,539.27,731Z" transform="translate(-239.56 -240.69)"/><path class="cls-7" d="M539.27,686.08a21.7,21.7,0,1,1-21.7,21.7,21.72,21.72,0,0,1,21.7-21.7m0-3a24.7,24.7,0,1,0,24.7,24.7,24.7,24.7,0,0,0-24.7-24.7Z" transform="translate(-239.56 -240.69)"/><path class="cls-4" d="M831.18,540.84l59.72-81.11A85.64,85.64,0,1,0,992.44,321.8l59.72-81.11c82.89,61,100.61,177.68,39.59,260.56S914.07,601.87,831.18,540.84Z" transform="translate(-239.56 -240.69)"/><path class="cls-3" d="M642.41,1015.59c39.82,1,88.84-1.62,90,0,1.87,2.69-59.63,38.3-51.67,49.75,4.75,6.83,40.11,2.3,67.89-2.46" transform="translate(-239.56 -240.69)"/><path class="cls-3" d="M766.81,920.82c-24.47,9.84-72.59,29.54-112.17,47.86" transform="translate(-239.56 -240.69)"/><path class="cls-3" d="M434.57,756.79s58.59-14.73,59.33-4.71c1,13.18-128.76,58.13-128.94,66.78s44.8,4.9,45.66,11c.6,4.18-51.74,29-84.88,44.33" transform="translate(-239.56 -240.69)"/><path class="cls-3" d="M443.47,1028.15c-44.76-.5-106.08,14.72-108.38,7.15-3.37-11.06,25.81-33.1,20.49-43.77-5.14-10.31-29.3-16.08-47.68-19" transform="translate(-239.56 -240.69)"/><path class="cls-3" d="M409.44,1155.59c24.25-21.65,64.73-60.61,76.75-89.28" transform="translate(-239.56 -240.69)"/><path class="cls-3" d="M589.59,737.8c-23.1,17.38-44.06,37-43.14,50.67,2,29.93,144.54,29.15,144.54,29.15s-37,12.81-46,27,102.1,17,102.1,17" transform="translate(-239.56 -240.69)"/><rect class="cls-10" x="560.86" y="630.47" width="347.88" height="168.79" rx="84.39" transform="translate(386.88 -545.25) rotate(39.72)"/><path class="cls-3" d="M464.08,1183.38s91.83-60.92,229.84-46.15" transform="translate(-239.56 -240.69)"/><path class="cls-4" d="M1686.19,566.35a277.07,277.07,0,0,1-89.36,75.48c-93.72,49.84-211.9,43.57-301.32-25.6l59.14-76.45,21.59-27.91L1465.91,396Z" transform="translate(-239.56 -240.69)"/><path class="cls-9" d="M1398.92,522.83c.44,7.8-19.25,15.28-44.27,16.95l21.59-27.91C1389.59,513.66,1398.63,517.67,1398.92,522.83Z" transform="translate(-239.56 -240.69)"/><ellipse class="cls-9" cx="1439.62" cy="589.28" rx="42.45" ry="17.45" transform="translate(-234.59 949.88) rotate(-45)"/><path class="cls-3" d="M1659.72,596c-24.69-37.68-64.34-90.26-88.44-81.53-36.83,13.34-13,138-32.74,145.84-10.74,4.27-28.89-28.13-40.31-24.72-10,3-19.06,22.1-25.19,38.77" transform="translate(-239.56 -240.69)"/><path class="cls-2" d="M1412.87,464.52c19.53,19.62,39.84,36.74,47.55,32.28,11.62-6.72,5.49-48.59,5.49-48.59s34.46,62.55,57.11,55.61c11.08-3.39,5.21-37-1.85-65.12" transform="translate(-239.56 -240.69)"/><path class="cls-9" d="M1621.5,627a275.75,275.75,0,0,1-24.67,14.81c-4.14-20.81-3-37.15,3.47-39.05C1606,601.11,1614.3,611.11,1621.5,627Z" transform="translate(-239.56 -240.69)"/><path class="cls-2" d="M1316.36,589.28s50.61,22.89,78.93,77.78" transform="translate(-239.56 -240.69)"/><rect class="cls-5" x="1278.51" y="428.23" width="96.81" height="526.46"/><rect class="cls-5" x="1011.55" y="428.94" width="569.95" height="46.15" transform="translate(-306.99 369.23) rotate(-25.82)"/><line class="cls-6" y1="954.7" x2="1535.49" y2="954.7"/><rect class="cls-9" x="1041.72" y="956.77" width="220.58" height="136.03" transform="translate(-476.02 1454.53) rotate(-67.43)"/><path class="cls-7" d="M1132.35,898.8l122.85,51.06-83.52,200.92-122.84-51.06,83.51-200.92m-1.62-3.92-85.81,206.45,128.38,53.37,85.82-206.46-128.39-53.36Z" transform="translate(-239.56 -240.69)"/></svg>