<?xml version="1.0" encoding="utf-8"?>
<!-- Generator: Adobe Illustrator 23.0.0, SVG Export Plug-In . SVG Version: 6.00 Build 0)  -->
<svg version="1.1" id="Layer" xmlns="http://www.w3.org/2000/svg" xmlns:xlink="http://www.w3.org/1999/xlink" x="0px" y="0px"
	 viewBox="0 0 1986 1352.92" style="enable-background:new 0 0 1986 1352.92;" xml:space="preserve">
<style type="text/css">
	.st0{fill:none;stroke:#000000;stroke-width:3.5;stroke-linejoin:bevel;stroke-miterlimit:10;}
	.st1{fill:#030207;}
	.st2{fill:none;stroke:#FFFFFF;stroke-width:4;stroke-miterlimit:10;}
	.st3{fill:#D14D33;}
	.st4{fill:#FFC200;}
	.st5{fill:none;stroke:#FFFFFF;stroke-width:3;stroke-miterlimit:10;}
	.st6{fill:none;stroke:#000000;stroke-width:4;stroke-miterlimit:10;}
	.st7{fill:#EFAFC5;}
	.st8{fill:none;stroke:#FFFFFF;stroke-width:7;stroke-linejoin:bevel;stroke-miterlimit:10;}
</style>
<g id="Man">
	<line class="st0" x1="947.52" y1="384.62" x2="1021.82" y2="380.1"/>
	<line class="st0" x1="999.67" y1="301.2" x2="866.07" y2="312.68"/>
	<path class="st1" d="M1014.67,291.84c-11.08,69.54,36.32,134.89,105.86,145.97s134.89-36.32,145.97-105.86"/>
	<polyline class="st1" points="1500.05,665.51 1585.06,601.95 1685.52,777.56 1562.77,668.37 1505.37,710.9 	"/>
	<line class="st2" x1="1583.3" y1="662.28" x2="1581.66" y2="703.01"/>
	<line class="st2" x1="1597.89" y1="677.41" x2="1596.24" y2="718.14"/>
	<line class="st2" x1="1612.62" y1="694.51" x2="1610.98" y2="735.24"/>
	<polyline class="st1" points="1371.21,943.76 1468.05,987.21 1363.32,1160.31 1399.17,999.98 1334.12,970.45 	"/>
	<line class="st2" x1="1414.46" y1="1014.97" x2="1378.06" y2="1033.31"/>
	<line class="st2" x1="1408.32" y1="1035.06" x2="1371.92" y2="1053.41"/>
	<line class="st2" x1="1400.52" y1="1056.25" x2="1364.12" y2="1074.59"/>
	<path class="st3" d="M1292.68,593.29l49.59,170.14l151.15-113.9c0,0,35.46,2.51,62.68,33.67c28.55,32.68,21.64,73.82,21.64,73.82
		l-283.82,221.67L1177.5,724.83l-1.13,112.77l209.66,97.03c0,0,13.86,37.96-6.15,75.22c-19.43,36.18-50.5,40.83-50.5,40.83
		l-221.4-84.28c-34.15-13-57.43-44.92-59.36-81.42l-13.12-248.1c-3.85-72.78,52.32-134.77,125.13-138.1l0,0
		C1221.18,496.03,1275.75,535.08,1292.68,593.29z"/>
	<g>
		<g>
			<path class="st4" d="M1048.34,873.69c21.28-7.16,44.7-9.17,67.04-8.11c21.9,1.04,44.18,5.33,64.31,14.22
				c37.16,16.41,59.29,49.92,75.25,85.87c10.05,22.65,18.85,45.85,29.7,68.14c0.84,1.72,3.41,0.21,2.57-1.5
				c-18.76-38.53-30.6-81.56-57-115.94c-12.11-15.77-27.14-28.7-45.11-37.34c-18.79-9.03-39.52-13.82-60.2-15.76
				c-25.54-2.4-52.91-0.69-77.35,7.54C1045.74,871.43,1046.51,874.31,1048.34,873.69L1048.34,873.69z"/>
		</g>
	</g>
	<g>
		<g>
			<path class="st4" d="M1388.64,958.65c-40.65,9.18-55.75,53.32-55.46,90.7c0.01,1.91,2.99,1.92,2.98,0
				c-0.28-36.07,13.93-78.95,53.27-87.83C1391.29,961.1,1390.5,958.22,1388.64,958.65L1388.64,958.65z"/>
		</g>
	</g>
	<g>
		<g>
			<path class="st4" d="M1066.2,934.06c22.84-20.48,54.27-27.05,83.55-18.37c26.84,7.95,49.93,26.76,65.58,49.69
				c10.53,15.42,17.93,32.67,23.2,50.52c0.54,1.83,3.42,1.05,2.87-0.79c-9.15-30.98-25.09-60.1-50.51-80.63
				c-22.24-17.97-51.23-29.12-80.06-24.77c-17.4,2.63-33.67,10.52-46.74,22.24C1062.67,933.24,1064.78,935.34,1066.2,934.06
				L1066.2,934.06z"/>
		</g>
	</g>
	<g>
		<g>
			<path class="st4" d="M1082.63,529.68c23.56,12.45,34.15,37.94,35.06,63.58c0.95,26.93-8.4,52.71-18.28,77.32
				c-9.88,24.62-20.75,49.3-23.99,75.88c-1.49,12.24-1.9,25.63,3.03,37.2c4.03,9.46,11.82,16.51,20.59,21.58
				c23.41,13.55,52.57,15.26,77.99,6.85c1.81-0.6,1.03-3.47-0.79-2.87c-24.26,8.02-51.79,6.64-74.37-5.8
				c-11.53-6.35-20.33-15.67-23.14-28.83c-2.8-13.12-1-27.45,1.75-40.41c10.49-49.4,44.41-94.2,39.85-146.48
				c-2.17-24.81-13.51-48.61-36.19-60.6C1082.44,526.21,1080.94,528.78,1082.63,529.68L1082.63,529.68z"/>
		</g>
	</g>
	<g>
		<g>
			<path class="st4" d="M1041.61,586.55c17.67,7.9,15.25,31.03,12.67,46.79c-2.9,17.68-8.96,34.62-17.55,50.32
				c-0.92,1.68,1.65,3.19,2.57,1.5c9.63-17.6,16.13-36.75,18.67-56.68c2.03-15.9,2.29-36.84-14.85-44.51
				C1041.38,583.21,1039.86,585.77,1041.61,586.55L1041.61,586.55z"/>
		</g>
	</g>
	<g>
		<g>
			<path class="st4" d="M1142.63,501.7c15.53,13.2,22.78,33.27,28.78,52.14c7.07,22.27,14,44.56,22.68,66.26
				c15.19,37.98,35.72,77.52,72.7,98.3c19.89,11.18,42.83,15.39,65.04,9.31c1.85-0.51,1.06-3.38-0.79-2.87
				c-43.81,12-83.98-17.15-107.18-52.08c-24.33-36.63-36.74-79.76-50.06-121.2c-6.06-18.85-13.57-38.79-29.07-51.97
				C1143.29,498.37,1141.17,500.46,1142.63,501.7L1142.63,501.7z"/>
		</g>
	</g>
	<g>
		<g>
			<path class="st4" d="M1211.44,511.36c1.96,53.31,45.01,90.67,89.04,113.57c1.7,0.88,3.2-1.68,1.5-2.57
				c-43.04-22.39-85.64-58.77-87.56-111C1214.34,509.45,1211.37,509.44,1211.44,511.36L1211.44,511.36z"/>
		</g>
	</g>
	<g>
		<g>
			<path class="st4" d="M1228.12,838.95c28.58-14.28,57.26,8.45,76.26,27.91c9.75,9.98,19.2,20.22,30.29,28.76
				c11.54,8.9,24.21,16.1,37.52,22c1.74,0.77,3.25-1.79,1.5-2.57c-14.77-6.55-28.83-14.71-41.3-25.03
				c-11.97-9.9-21.99-21.82-33.2-32.53c-18.79-17.94-46.58-34.09-72.56-21.11C1224.9,837.23,1226.41,839.8,1228.12,838.95
				L1228.12,838.95z"/>
		</g>
	</g>
	<g>
		<g>
			<path class="st4" d="M1206.26,790.46c31.38-4.41,63.14-2.49,93.58,6.44c31.21,9.15,59.49,24.88,86.4,42.85
				c15.67,10.46,31.18,21.2,47.84,30.04c1.69,0.9,3.2-1.67,1.5-2.57c-30.58-16.22-57.39-38.57-88.26-54.33
				c-27.38-13.98-56.83-23.82-87.52-26.79c-18.13-1.76-36.33-1.05-54.34,1.49C1203.58,787.85,1204.39,790.72,1206.26,790.46
				L1206.26,790.46z"/>
		</g>
	</g>
	<g>
		<g>
			<path class="st4" d="M1399.33,719.31c-2.45,24.58,4.74,49.5,18.54,69.86c14.77,21.8,36.71,36.97,61.2,46.05
				c1.8,0.67,2.57-2.21,0.79-2.87c-24.23-8.98-45.98-24.21-60.29-45.99c-12.97-19.73-19.61-43.46-17.26-67.05
				C1402.5,717.4,1399.52,717.41,1399.33,719.31L1399.33,719.31z"/>
		</g>
	</g>
	<g>
		<g>
			<path class="st4" d="M1576.05,717.63c-19.49-10.55-44.57-6.9-56.84,12.68c-6.36,10.16-6.37,22.49-4.79,34.02
				c1.64,11.91,6.1,22.43,15.22,30.47c1.43,1.26,3.55-0.84,2.1-2.1c-8-7.05-12.28-16.06-14.04-26.49
				c-1.85-10.93-2.32-23.29,3.36-33.2c10.96-19.11,35.02-22.8,53.48-12.81C1576.23,721.11,1577.74,718.54,1576.05,717.63
				L1576.05,717.63z"/>
		</g>
	</g>
	<g>
		<g>
			<path class="st4" d="M1441.49,688.44c4.27,6,9.39,11.53,16.39,14.28c7.92,3.1,16.7,1.72,24.16-1.99
				c8.12-4.04,14.47-10.85,20.12-17.79c6.65-8.18,12.83-16.74,18.64-25.53c1.06-1.6-1.52-3.1-2.57-1.5
				c-8.85,13.39-18.46,28.66-31.49,38.39c-6.9,5.16-15.72,8.57-24.41,6.67c-7.94-1.74-13.72-7.63-18.27-14.02
				C1442.95,685.39,1440.37,686.88,1441.49,688.44L1441.49,688.44z"/>
		</g>
	</g>
	<path class="st5" d="M1360.45,926.72L1360.45,926.72c-34.29,26.78-84.53,15.22-103.67-23.85L1142.05,646.3"/>
	<line class="st5" x1="1342.27" y1="763.43" x2="1337.82" y2="784.78"/>
	<line class="st5" x1="1176.37" y1="837.6" x2="1158.77" y2="849.83"/>
	<path class="st3" d="M1095.31,236.83c0.61,28.09,23.87,50.37,51.96,49.76c24.83-0.54,45.12-18.78,49.07-42.41
		c0.51-3.1,0.75-6.29,0.68-9.55c-0.61-28.08-23.87-50.37-51.96-49.76c-14.62,0.32-27.65,6.76-36.71,16.83
		C1099.99,210.99,1095.02,223.36,1095.31,236.83z"/>
	<path d="M1097.39,181.48c0.25,11.67,9.91,20.92,21.58,20.67c10.32-0.22,18.74-7.8,20.38-17.62c0.21-1.29,0.31-2.61,0.28-3.97
		c-0.25-11.67-9.91-20.92-21.58-20.67c-6.07,0.13-11.49,2.81-15.25,6.99C1099.34,170.75,1097.27,175.89,1097.39,181.48z"/>
	<path d="M1132.28,174.78c0.15,7.11,6.04,12.75,13.15,12.59c6.28-0.14,11.42-4.75,12.42-10.73c0.13-0.78,0.19-1.59,0.17-2.42
		c-0.15-7.11-6.04-12.75-13.15-12.59c-3.7,0.08-7,1.71-9.29,4.26C1133.46,168.25,1132.2,171.38,1132.28,174.78z"/>
	<ellipse transform="matrix(0.9998 -0.0216 0.0216 0.9998 -5.277 24.2067)" cx="1115.82" cy="255.92" rx="5.51" ry="8.77"/>
	<ellipse transform="matrix(0.9998 -0.0216 0.0216 0.9998 -5.2772 24.6032)" cx="1134.14" cy="256.13" rx="5.51" ry="8.77"/>
	<path class="st3" d="M1177.47,235.03c0.22,10.2,8.67,18.29,18.87,18.07c9.02-0.2,16.39-6.82,17.82-15.41
		c0.19-1.13,0.27-2.28,0.25-3.47c-0.22-10.2-8.67-18.29-18.87-18.07c-5.31,0.11-10.04,2.46-13.34,6.11
		C1179.17,225.64,1177.37,230.14,1177.47,235.03z"/>
	<path d="M1109.61,200.29c0,0,18.29,11.11,50.83,4.45l2.92,30.6l19.8-4.83c0,0,4.76-17.8,22.01-11.89c0,0,0.67-34.97-19.99-41.4
		C1149.09,165.99,1117.7,182.48,1109.61,200.29z"/>
	<path class="st6" d="M1124.61,265.86c0,0-3.49,7.88-11.01,6.02"/>
	<path class="st4" d="M415.46,598.63l487.87,38.13V320.47c0-18.7-15.16-33.87-33.87-33.87H449.33c-18.7,0-33.87,15.16-33.87,33.87
		V598.63z"/>
	<path class="st0" d="M905.49,389.43c-34.36-0.55-63.08,8.42-63.08,13.64c0,9.23,52.38,6.69,52.38,6.69s-68.53,14.07-69.15,22.08
		c-0.53,6.77,75.69-0.31,75.69-0.31s-62,16.08-55.23,25.31c4.1,5.59,40.19-8.63,56.8-4.49c16.61,4.14,127.55,131.02,187.33,133.68
		c59.79,2.66,162.56-180.88,162.56-180.88"/>
	<path class="st0" d="M584.16,279.33c0,0,7.35,51.13,13.12,51.63c5.77,0.51,8.4-47.08,8.4-47.08s3.15,56.7,10.5,57.71
		s11.55-62.26,11.55-62.26s8.92,48.09,17.32,46.57c8.4-1.52,0-48.09,0-48.09"/>
	<path class="st1" d="M903.08,638.88c-4.84,20.69-64.33,22.38-144.46,6.64c-39.37-7.75-67.21-5.79-61.35,10.99
		c8.76,25.09-63.15,24.98-143.05,8.19c-79.89-16.79-143.34-47.71-138.5-68.4c4.84-20.69,64.59-22.34,144.71-6.59
		c39.37,7.74,67.21,5.78,61.36-11c-8.77-25.09,63.13-24.98,143.04-8.19C844.72,587.32,907.92,618.19,903.08,638.88z"/>
	<circle class="st7" cx="858.9" cy="942.68" r="32.62"/>
	<circle class="st4" cx="594.15" cy="1188.83" r="32.62"/>
	<circle class="st3" cx="626.78" cy="676.46" r="32.62"/>
	
		<rect x="449.44" y="849.93" transform="matrix(0.9756 -0.2196 0.2196 0.9756 -181.2628 126.4263)" class="st7" width="57.17" height="57.17"/>
	
		<rect x="565.57" y="995.55" transform="matrix(0.866 0.5 -0.5 0.866 591.6705 -159.8674)" class="st3" width="57.17" height="57.17"/>
	<polygon class="st4" points="723.03,751.03 720.04,817.72 780.8,790.57 	"/>
	<polygon class="st3" points="810.07,1226.14 765.69,1276 829.97,1293.26 	"/>
	<line class="st8" x1="779.11" y1="618.88" x2="836.96" y2="676.73"/>
	<line class="st0" x1="453.42" y1="1044.24" x2="511.27" y2="1102.08"/>
	<line class="st0" x1="801.05" y1="1091.03" x2="858.9" y2="1148.88"/>
	<line class="st8" x1="547.52" y1="642.94" x2="489.67" y2="700.79"/>
	<line class="st0" x1="748.96" y1="931.99" x2="691.11" y2="989.84"/>
	<line class="st0" x1="496.08" y1="1242.47" x2="438.23" y2="1300.31"/>
	<line class="st0" x1="739.08" y1="1174.67" x2="681.23" y2="1232.52"/>
	<line class="st0" x1="573.55" y1="788.8" x2="631.4" y2="846.65"/>
	<line class="st8" x1="1127.03" y1="444.77" x2="1164.45" y2="392.46"/>
	<path class="st0" d="M1181.2,364.63l-96.28,135.05c0,0-142.67-119.64-180.46-122.07"/>
	<line class="st0" x1="546.11" y1="641.54" x2="488.26" y2="699.39"/>
	<line class="st0" x1="780.8" y1="617.18" x2="838.65" y2="675.03"/>
</g>
</svg>
