<svg id="Layer" xmlns="http://www.w3.org/2000/svg" viewBox="0 0 1509.15 989.26"><defs><style>.cls-1{fill:#ffcf64;}.cls-2{fill:#f4c3d2;}.cls-3{fill:#0068a8;}.cls-10,.cls-4,.cls-5,.cls-8{fill:none;}.cls-10,.cls-4{stroke:#fff;}.cls-4,.cls-8{stroke-miterlimit:10;}.cls-4{stroke-width:6px;}.cls-5,.cls-8{stroke:#170c2c;}.cls-10,.cls-5{stroke-linejoin:bevel;}.cls-10,.cls-5,.cls-8{stroke-width:3px;}.cls-6{fill:#c64f4b;}.cls-7{fill:#030207;}.cls-9{fill:#170c2c;}.cls-11{fill:#f490a4;}.cls-12{fill:#fff;}.cls-13{fill:#fcce44;}</style></defs><title>9</title><rect class="cls-1" x="619.69" y="470.91" width="889.46" height="515.85"/><rect class="cls-2" x="131.17" y="312.38" width="846.2" height="612.54" transform="translate(-312.38 977.37) rotate(-90)"/><path class="cls-3" d="M288.44,784.59c1.19,3,5.35,224.17,5.35,224.17s43.4-20.22,44.59-61.25L497.64,935.6a135.3,135.3,0,0,0,122.1-106.08l26-119.26s39.29,29.73,36.91,30.33-67.79,261-67.79,261H834s-20.5-47.14-49.64-49.73l49.09-167.58a164.75,164.75,0,0,0-40.25-161.44L682.11,509.15a120,120,0,0,0-150.77-17.09h0a120,120,0,0,0-55.07,98.16l-3.5,150.37Z" transform="translate(-248 -195.55)"/><path class="cls-4" d="M547.1,612.74c5.23,6.29,102.51,103.08,102.51,103.08" transform="translate(-248 -195.55)"/><path class="cls-5" d="M1533.77,1141.47h121.11a65.2,65.2,0,0,0,65.2-65.2V728.59c0-26-21.07-39.05-47-39.05h0c-26,0-47.06,13.06-47.06,39.05v324.79H1502.39" transform="translate(-248 -195.55)"/><path class="cls-6" d="M1238.56,1159.85H1051.23c-78.33,0-137.71-70.67-124.21-147.84l46-262.78s-57.38-11.69-56.31-52.77l208.62-5.08L1070,981.57l134.08-2.28-6.21-178.65c-2.43-69.7,61.63-122.91,129.71-107.74l203.73,45.41s22.1-59.08,53.59-55.39l-16.05,192.94-217.32-45.17L1367.77,1019A129.7,129.7,0,0,1,1238.56,1159.85Z" transform="translate(-248 -195.55)"/><path class="cls-3" d="M1541.06,1159.85H1385.37c-26.1,0-42.34-28.33-29.16-50.86l77.84-133c13-22.3,45.28-22.3,58.33,0l77.84,133C1583.4,1131.52,1567.16,1159.85,1541.06,1159.85Z" transform="translate(-248 -195.55)"/><path class="cls-5" d="M1411.76,1059.54,951,1062.35s-56.76.9-54.53,10.33c2.65,11.26,61.36,8.79,61.36,8.79s-78-.39-75.82,12.22c1.62,9.52,71.35,7.57,71.35,7.57s-63.51-.1-61.55,10.75c2.25,12.48,68.54,8.5,68.54,8.5s-29.73,1.78-28.58,12.2c1,9.55,38,8.75,38,8.75l443.6-.69" transform="translate(-248 -195.55)"/><path class="cls-6" d="M1475.24,1030.59l57.07-79.21s-19.2-26.94-4.76-43.25,29.24,2,29.24,2,22.47-21,51.22-8.6,27.38,52.11,13.91,73.1c-19.89,31-43.77,38-72.54,13.75l-37.72,54.73" transform="translate(-248 -195.55)"/><path class="cls-7" d="M1544.5,901.9s6.81-33.61,50.38-27.93,45.15,22.4,63.23,19.91,16.55,50.73-30.78,42.09-44.88-11-44.88-11-7.22,20.34-18.54,15.2-8.32-27.66-8.32-27.66" transform="translate(-248 -195.55)"/><line class="cls-8" x1="1362.23" y1="770.69" x2="1359.91" y2="789.2"/><circle class="cls-9" cx="1352.76" cy="760.74" r="5.07"/><circle class="cls-9" cx="1372.9" cy="767.02" r="5.07"/><line class="cls-4" x1="1032.31" y1="780.94" x2="955.02" y2="780.94"/><path class="cls-5" d="M1634.28,723.18s32.62,2.05,32.21,13.54S1632,750.05,1632,750.05" transform="translate(-248 -195.55)"/><path class="cls-5" d="M1717.56,723.18s2.06,34.26-7.79,34.46-15.38-34.46-15.38-34.46,3.69,40.2-10.47,40.61-16.2-43.69-16.2-43.69-1.85,45.13-12.92,44.72-13.51-15.73-13.51-15.73" transform="translate(-248 -195.55)"/><path class="cls-5" d="M724.84,527.07v361.3c0,25.78,20.9,39.7,46.68,39.7h0c25.78,0,46.68-13,46.68-38.74V451.15" transform="translate(-248 -195.55)"/><path class="cls-10" d="M810,894.7s-32.36-2-32-13.43S812.2,868,812.2,868" transform="translate(-248 -195.55)"/><path class="cls-10" d="M725.33,894.7s-2.09-34,7.95-34.19S749,894.7,749,894.7s-3.76-39.89,10.66-40.29,16.52,43.34,16.52,43.34S778,853,789.32,853.39,803.08,869,803.08,869" transform="translate(-248 -195.55)"/><rect class="cls-6" x="186" y="846.2" width="313.77" height="140.56" rx="70.28"/><path class="cls-11" d="M1703.74,665.46H1558a109.94,109.94,0,0,0-219.88,0H1192.47c0-141.18,114.44-255.63,255.62-255.63S1703.74,524.28,1703.74,665.46Z" transform="translate(-248 -195.55)"/><circle class="cls-12" cx="1030.46" cy="538.25" r="125.72" transform="translate(86.1 1273.63) rotate(-80.78)"/><path class="cls-9" d="M1030.46,414a124.21,124.21,0,1,1-87.84,36.38A123.39,123.39,0,0,1,1030.46,414m0-3a127.22,127.22,0,1,0,127.21,127.22A127.22,127.22,0,0,0,1030.46,411Z" transform="translate(-248 -195.55)"/><circle class="cls-11" cx="782.46" cy="160.41" r="54.75"/><path class="cls-12" d="M375.61,1180.81a26.66,26.66,0,1,1,26.66-26.66A26.69,26.69,0,0,1,375.61,1180.81Z" transform="translate(-248 -195.55)"/><path class="cls-9" d="M375.62,1129a25.16,25.16,0,1,1-25.16,25.15A25.18,25.18,0,0,1,375.62,1129m0-3a28.16,28.16,0,1,0,28.15,28.15A28.15,28.15,0,0,0,375.62,1126Z" transform="translate(-248 -195.55)"/><path d="M826.66,306.67s14.54,44.3-2,71.79-62.64,25-62.64,25l-51.49-91.35Z" transform="translate(-248 -195.55)"/><path class="cls-6" d="M526,359.29A139.49,139.49,0,1,1,756.83,515.93Z" transform="translate(-248 -195.55)"/><path class="cls-13" d="M700.71,354.62l44.81-67.28s-13.09-25.8,1.53-38,25,5.53,25,5.53,22.17-15.2,45.41-.74,16.87,48.63,2.49,65c-21.25,24.22-41.42,28.72-63.12,4L734,361.38" transform="translate(-248 -195.55)"/><line class="cls-8" x1="557.27" y1="112.34" x2="553.09" y2="127.15"/><path d="M713.05,336.1c28.9,10.09,71.55-77.18,71.55-77.18,13.71,31,44.75,44,44.75,44s20.1-42-23.43-66.59-71-5.24-71-5.24-50.54-20.69-76.26,13.65S653.57,329,653.57,329,690.07,328.08,713.05,336.1Z" transform="translate(-248 -195.55)"/><ellipse class="cls-9" cx="817.75" cy="309.51" rx="5.59" ry="3.67" transform="translate(-248.09 423.23) rotate(-41.45)"/><ellipse class="cls-9" cx="801.25" cy="298.11" rx="5.59" ry="3.67" transform="translate(-244.67 409.46) rotate(-41.45)"/><path class="cls-10" d="M724.84,552.9l.31,343.77s3.81,31.4,46.37,31.4a69.27,69.27,0,0,0,20.76-3.25" transform="translate(-248 -195.55)"/><path class="cls-5" d="M566.27,372.05h-173l-.88,261.59s.19,40.83-10.39,41.81c-11.55,1.08-15.95-31.84-15.95-31.84s2.14,73.39-11.7,75.64c-12,2-11.72-68.28-11.72-68.28s-.16,77.16-10.72,78.78c-14,2.13-13.08-84.09-13.08-84.09s.62,65-11.89,67.7c-10.46,2.28-12.39-60.5-12.39-60.5l-.92-307.7a79,79,0,0,1,79-79.25h232.1" transform="translate(-248 -195.55)"/><line class="cls-8" y1="987.76" x2="1509.15" y2="987.76"/><path class="cls-12" d="M1518.6,332.41a97.21,97.21,0,0,1-20.7-2.25,96.21,96.21,0,0,1-73.55-113L1612,258.38a96.11,96.11,0,0,1-93.43,74Z" transform="translate(-248 -195.55)"/><path class="cls-9" d="M1425.53,219l184.68,40.55A94.59,94.59,0,0,1,1425.53,219m-2.34-3.59a97.59,97.59,0,1,0,190.64,41.87l-190.64-41.87Z" transform="translate(-248 -195.55)"/><rect class="cls-6" x="1160.46" y="350.97" width="517.85" height="59.33" rx="29.67" transform="matrix(0.99, -0.15, 0.15, 0.99, -288.97, 21.04)"/></svg>